<?xml version="1.0" encoding="UTF-8"?>
<svg height="16px" viewBox="0 0 16 16" width="16px" xmlns="http://www.w3.org/2000/svg" xmlns:xlink="http://www.w3.org/1999/xlink">
    <linearGradient id="a" gradientTransform="matrix(0.0154057 0 0 0.0152845 8.626617 0.638199)" gradientUnits="userSpaceOnUse" x1="369.164856" x2="267.569244" y1="297.688202" y2="153.438431">
        <stop offset="0" stop-color="#fc6801"/>
        <stop offset="1" stop-color="#f44125"/>
    </linearGradient>
    <linearGradient id="b" gradientTransform="matrix(0.0154057 0 0 0.0152845 14.924296 4.663453)" gradientUnits="userSpaceOnUse" x1="-388.828003" x2="33.749901" y1="653.702087" y2="97.907349">
        <stop offset="0" stop-color="#fcb801"/>
        <stop offset="1" stop-color="#fc6801"/>
    </linearGradient>
    <linearGradient id="c" gradientTransform="matrix(0.0154057 0 0 0.0152845 14.955107 4.862151)" gradientUnits="userSpaceOnUse" x1="-375.724731" x2="-18.996889" y1="538.284607" y2="163.242615">
        <stop offset="0" stop-color="#fcb801"/>
        <stop offset="1" stop-color="#fcb801" stop-opacity="0"/>
    </linearGradient>
    <linearGradient id="d" gradientTransform="matrix(-0.0154033 -0.00026944 0.00027158 -0.0152821 1.363105 11.663819)" gradientUnits="userSpaceOnUse" x1="-434.926605" x2="63.296841" y1="648.513916" y2="185.400085">
        <stop offset="0.429285" stop-color="#9d3774"/>
        <stop offset="1" stop-color="#0ba5ec"/>
    </linearGradient>
    <linearGradient id="e" gradientTransform="matrix(-0.0154033 -0.00026944 0.00027158 -0.0152821 1.335829 11.464613)" gradientUnits="userSpaceOnUse" x1="15.977968" x2="-360.490814" y1="234.332321" y2="535.320435">
        <stop offset="0" stop-color="#0ba5ec"/>
        <stop offset="0.734678" stop-color="#9d3774"/>
    </linearGradient>
    <linearGradient id="f" gradientTransform="matrix(0.0154057 -0 0 0.0152845 0.211342 0.313052)" gradientUnits="userSpaceOnUse" x1="449.71991" x2="144.249786" y1="964.493652" y2="589.727051">
        <stop offset="0.428385" stop-color="#61b933"/>
        <stop offset="1" stop-color="#298ed3"/>
    </linearGradient>
    <path d="m 14.511719 4.300781 c 0.351562 2.054688 -1.796875 4.390625 -2.144531 4.421875 c -0.027344 -0.015625 -0.027344 -0.015625 -0.058594 -0.0625 c 0.242187 -2.148437 -1.757813 -4.394531 -3.652344 -4.621094 c -0.046875 -0.007812 -0.046875 -0.007812 -0.097656 -0.003906 c -0.039063 0 -0.039063 0 -0.070313 -0.019531 c -0.015625 -0.027344 -0.015625 -0.027344 -0.015625 -0.0625 c 1.035156 -0.976563 1.140625 -1.070313 1.425782 -1.414063 c 0.164062 -0.195312 0.007812 -0.441406 -0.085938 -0.484374 c -1.191406 -0.535157 -1.550781 -0.683594 -2.582031 -1.078126 c -0.140625 -0.054687 -0.023438 -0.144531 -0.023438 -0.144531 c 3.316407 0.085938 5.816407 0.628907 7.183594 2.902344 c 0.105469 0.195313 0.089844 0.382813 0.121094 0.566406 z m 0 0" fill="url(#a)"/>
    <path d="m 12.371094 8.667969 c -0.292969 -3.34375 -2.273438 -4.253907 -3.859375 -4.644531 c -0.003907 -0.070313 0.628906 -0.644532 0.628906 -0.644532 c 0.050781 0.210938 3.09375 0.101563 3.441406 4.0625 l -0.027343 0.007813 l 0.035156 0.117187 c 0.699218 -0.378906 1.351562 -2.183594 0.824218 -3.828125 c -0.261718 -0.816406 -1.800781 -2.183593 -2.085937 -2.40625 c 0.113281 -0.125 0.242187 -0.015625 0.738281 0.28125 c 0.660156 0.332031 1.164063 0.609375 1.757813 1.375 c 0.878906 0.816407 1.4375 2.988281 -1.375 5.699219 z m 0 0" fill-opacity="0.066667"/>
    <path d="m 14.910156 4.667969 c 0.035156 0 0.054688 0.042969 0.070313 0.070312 c 2.011719 3.234375 0.449219 9.132813 -3.253907 10.273438 c -0.007812 0.253906 0.085938 0.855469 0.089844 0.894531 l -0.003906 0.039062 c -0.074219 0.046876 -0.152344 0.035157 -0.238281 0.035157 c -0.03125 0 -0.0625 0 -0.09375 0 c -0.097657 0 -2.871094 -0.953125 -4.476563 -1.550781 c -0.269531 -0.101563 -0.371094 -0.375 -0.097656 -0.648438 c 0.757812 -0.769531 1.984375 -1.882812 3.003906 -2.984375 c 0.128906 -0.136719 0.328125 0.03125 0.34375 0.039063 c 0.054688 0.050781 0.066406 0.113281 0.070313 0.1875 c 0.039062 0.285156 0.050781 0.386718 0.09375 0.675781 c 1.730469 -1.296875 1.421875 -1.804688 1.796875 -2.21875 c 1.71875 -1.300781 2.757812 -2.859375 2.65625 -4.617188 c -0.007813 -0.082031 -0.027344 -0.164062 0.039062 -0.195312 z m 0 0" fill="url(#b)"/>
    <path d="m 14.957031 4.863281 c 0.367188 3.449219 0.109375 8.179688 -4.023437 8.714844 c 0.445312 1.371094 0.300781 0.964844 0.601562 1.984375 c 0.007813 0.109375 0 0.234375 -0.066406 0.195312 c -0.167969 -0.082031 -4.039062 -1.734374 -4.105469 -1.703124 c -0.105469 0.046874 -0.195312 0.0625 -0.308593 0.046874 c -0.058594 -0.027343 -0.082032 -0.046874 -0.109376 -0.097656 c -0.011718 -0.046875 -0.011718 -0.046875 0 -0.09375 c 0.03125 -0.035156 0.066407 -0.066406 0.105469 -0.089844 c 0.996094 -1.132812 1.855469 -2.015624 2.765625 -2.929687 c 0.101563 -0.074219 0.0625 -0.054687 0.164063 -0.128906 c 0.113281 -0.011719 0.175781 0.015625 0.273437 0.074219 c 0.136719 0.1875 0.140625 0.6875 0.136719 0.890624 c 0.941406 -0.503906 1.6875 -1.589843 1.710937 -2.152343 c 1.050782 -0.871094 2.683594 -1.628907 2.855469 -4.710938 z m 0 0" fill="url(#c)"/>
    <path d="m 0.886719 11.066406 c -0.035157 -0.003906 -0.058594 -0.046875 -0.074219 -0.074218 c -1.675781 -3.300782 0.210938 -8.542969 3.933594 -9.617188 c 0.011718 -0.257812 -0.035156 -0.503906 -0.074219 -0.898438 c -0.003906 -0.195312 0.09375 -0.195312 0.363281 -0.101562 c 0.492188 0.152344 2.921875 1 4.417969 1.660156 c 0.34375 0.152344 0.347656 0.410156 0.089844 0.652344 c -0.789063 0.742188 -2.019531 1.851562 -3.054688 2.929688 c -0.132812 0.136718 -0.328125 -0.035157 -0.34375 -0.042969 c -0.054687 -0.054688 -0.066406 -0.113281 -0.070312 -0.1875 c -0.035157 -0.285157 -0.039063 -0.496094 -0.078125 -0.785157 c -1.121094 0.644532 -1.816406 1.464844 -2.179688 2.609376 c -1.699218 0.597656 -2.558594 1.082031 -2.890625 3.65625 c 0.007813 0.085937 0.027344 0.164062 -0.039062 0.199218 z m 0 0" fill="url(#d)"/>
    <path d="m 0.84375 11.019531 c -0.308594 -3.453125 0.527344 -7.734375 4.667969 -8.199219 c -0.421875 -1.378906 -0.285157 -0.96875 -0.566407 -1.992187 c -0.007812 -0.113281 0.003907 -0.234375 0.070313 -0.199219 c 0.164063 0.089844 4.007813 1.804688 4.074219 1.777344 c 0.109375 -0.042969 0.195312 -0.058594 0.308594 -0.039062 c 0.058593 0.023437 0.078124 0.046874 0.109374 0.097656 c 0.011719 0.046875 0.011719 0.046875 0 0.09375 c -0.035156 0.035156 -0.070312 0.0625 -0.109374 0.089844 c -1.015626 1.113281 -1.890626 1.980468 -2.816407 2.878906 c -0.105469 0.070312 -0.0625 0.050781 -0.167969 0.125 c -0.113281 0.011718 -0.175781 -0.015625 -0.269531 -0.078125 c -0.132812 -0.191407 -0.148437 -0.800781 -0.140625 -1.003907 c -1.527344 0.941407 -1.738281 1.570313 -2.199218 2.621094 c -1.613282 0.617188 -2.429688 0.511719 -2.960938 3.828125 z m 0 0" fill="url(#e)"/>
    <path d="m 3.820312 7.472656 c -0.351562 2.542969 1.011719 4.753906 4 4.941406 c 0.171876 0.25 -0.417968 0.539063 -1.160156 1.332032 c -0.351562 0.371094 -0.085937 0.722656 0.136719 0.8125 c 1.558594 0.621094 2.558594 1.007812 2.492187 1.105468 c -5.535156 0.074219 -7.375 -1.859374 -8.222656 -4.035156 c 0.15625 -2.546875 1.429688 -3.703125 2.753906 -4.15625 z m 0 0" fill="url(#f)"/>
    <path d="m 3.761719 7.601562 c -0.132813 3.246094 1.480469 4.472657 4.03125 4.839844 c -0.027344 0.140625 -0.257813 0.160156 -0.589844 0.554688 c -2.90625 -0.355469 -4.578125 -0.085938 -3.757813 -3.976563 h 0.03125 v -0.125 c -0.246093 0.101563 -1.390624 0.804688 -1.363281 2.527344 c 0.011719 0.859375 0.804688 2.527344 1.011719 2.820313 c -0.21875 -0.105469 -0.5 -0.296876 -0.816406 -0.613282 c -0.429688 -0.519531 -0.867188 -1.0625 -1.214844 -1.964844 c -0.144531 -1.636718 1.195312 -3.886718 2.667969 -4.0625 z m 0 0" fill-opacity="0.066667"/>
</svg>
