<?xml version="1.0" encoding="UTF-8"?>
<svg version="1.1" xmlns="http://www.w3.org/2000/svg" width="500" height="500">
<path d="M0 0 C0.81110664 -0.00170885 1.62221328 -0.0034177 2.45789891 -0.00517833 C5.18493759 -0.00848143 7.91173204 0.00254391 10.63874817 0.01345825 C12.58990473 0.01402219 14.54106171 0.01370615 16.49221802 0.01257324 C21.79769326 0.01199804 27.10307857 0.02377936 32.40853286 0.03772116 C37.94989173 0.05020072 43.49125253 0.05139682 49.03262329 0.05377197 C59.52983603 0.05999491 70.02700725 0.07641673 80.52420169 0.09647095 C92.47325214 0.11880465 104.42230455 0.12981701 116.37137067 0.13986182 C140.95506708 0.16078226 165.53872659 0.19597403 190.12239075 0.24050903 C190.12239075 0.90050903 190.12239075 1.56050903 190.12239075 2.24050903 C191.11239075 2.57050903 192.10239075 2.90050903 193.12239075 3.24050903 C194.14343626 4.21901098 195.14300284 5.2203133 196.12239075 6.24050903 C197.11239075 6.90050903 198.10239075 7.56050903 199.12239075 8.24050903 C199.12239075 9.23050903 199.12239075 10.22050903 199.12239075 11.24050903 C199.78239075 11.24050903 200.44239075 11.24050903 201.12239075 11.24050903 C201.12239075 11.90050903 201.12239075 12.56050903 201.12239075 13.24050903 C202.11239075 13.57050903 203.10239075 13.90050903 204.12239075 14.24050903 C205.27868767 15.39680595 206.42845196 16.55987725 207.55989075 17.74050903 C209.25552521 19.45642529 209.25552521 19.45642529 212.12239075 21.24050903 C212.12239075 22.23050903 212.12239075 23.22050903 212.12239075 24.24050903 C212.78239075 24.24050903 213.44239075 24.24050903 214.12239075 24.24050903 C214.12239075 24.90050903 214.12239075 25.56050903 214.12239075 26.24050903 C215.11239075 26.57050903 216.10239075 26.90050903 217.12239075 27.24050903 C218.27868767 28.39680595 219.42845196 29.55987725 220.55989075 30.74050903 C222.25552521 32.45642529 222.25552521 32.45642529 225.12239075 34.24050903 C225.12239075 35.23050903 225.12239075 36.22050903 225.12239075 37.24050903 C225.78239075 37.24050903 226.44239075 37.24050903 227.12239075 37.24050903 C227.12239075 37.90050903 227.12239075 38.56050903 227.12239075 39.24050903 C228.11239075 39.57050903 229.10239075 39.90050903 230.12239075 40.24050903 C231.27868767 41.39680595 232.42845196 42.55987725 233.55989075 43.74050903 C235.25552521 45.45642529 235.25552521 45.45642529 238.12239075 47.24050903 C238.12239075 48.23050903 238.12239075 49.22050903 238.12239075 50.24050903 C238.78239075 50.24050903 239.44239075 50.24050903 240.12239075 50.24050903 C240.12239075 50.90050903 240.12239075 51.56050903 240.12239075 52.24050903 C241.11239075 52.57050903 242.10239075 52.90050903 243.12239075 53.24050903 C244.27868767 54.39680595 245.42845196 55.55987725 246.55989075 56.74050903 C248.25552521 58.45642529 248.25552521 58.45642529 251.12239075 60.24050903 C251.12239075 61.23050903 251.12239075 62.22050903 251.12239075 63.24050903 C251.78239075 63.24050903 252.44239075 63.24050903 253.12239075 63.24050903 C253.12239075 63.90050903 253.12239075 64.56050903 253.12239075 65.24050903 C254.11239075 65.57050903 255.10239075 65.90050903 256.12239075 66.24050903 C257.23702276 67.35514104 258.3464747 68.47526365 259.43489075 69.61550903 C261.21133929 71.39469134 261.21133929 71.39469134 263.80989075 73.24050903 C264.57301575 73.90050903 265.33614075 74.56050903 266.12239075 75.24050903 C266.12239075 76.23050903 266.12239075 77.22050903 266.12239075 78.24050903 C267.11239075 78.57050903 268.10239075 78.90050903 269.12239075 79.24050903 C270.50088178 80.52710066 271.827681 81.86963989 273.12239075 83.24050903 C274.00926575 84.08613403 274.89614075 84.93175903 275.80989075 85.80300903 C278.12239075 88.24050903 278.12239075 88.24050903 279.12239075 91.24050903 C280.11239075 91.57050903 281.10239075 91.90050903 282.12239075 92.24050903 C283.50088178 93.52710066 284.827681 94.86963989 286.12239075 96.24050903 C287.00926575 97.08613403 287.89614075 97.93175903 288.80989075 98.80300903 C291.12239075 101.24050903 291.12239075 101.24050903 292.12239075 104.24050903 C293.11239075 104.57050903 294.10239075 104.90050903 295.12239075 105.24050903 C296.50088178 106.52710066 297.827681 107.86963989 299.12239075 109.24050903 C300.00926575 110.08613403 300.89614075 110.93175903 301.80989075 111.80300903 C304.12239075 114.24050903 304.12239075 114.24050903 305.12239075 117.24050903 C306.11239075 117.57050903 307.10239075 117.90050903 308.12239075 118.24050903 C309.50088178 119.52710066 310.827681 120.86963989 312.12239075 122.24050903 C313.00926575 123.08613403 313.89614075 123.93175903 314.80989075 124.80300903 C317.12239075 127.24050903 317.12239075 127.24050903 318.12239075 130.24050903 C318.78239075 130.24050903 319.44239075 130.24050903 320.12239075 130.24050903 C320.12239075 130.90050903 320.12239075 131.56050903 320.12239075 132.24050903 C321.11239075 132.57050903 322.10239075 132.90050903 323.12239075 133.24050903 C323.78239075 133.90050903 324.44239075 134.56050903 325.12239075 135.24050903 C325.81337408 135.83482583 326.50435741 136.42914264 327.21627963 137.04146904 C329.54376045 139.72663433 329.62184201 140.91781108 329.62016869 144.42514896 C329.62936628 145.47976513 329.63856387 146.5343813 329.64804018 147.62095553 C329.63260949 149.35717209 329.63260949 149.35717209 329.61686707 151.12846375 C329.6216959 152.35891401 329.62652473 153.58936427 329.63149989 154.8571009 C329.64083439 158.27447093 329.6321823 161.69094592 329.61597133 165.10823429 C329.60282614 168.79266122 329.61271229 172.47703486 329.61973572 176.16146851 C329.62982491 183.37969908 329.61853032 190.59774657 329.60003512 197.81595439 C329.57928137 206.21711134 329.57940711 214.61822855 329.58038028 223.01940631 C329.58138183 238.00582496 329.56304958 252.99215828 329.53401184 267.97854614 C329.50583133 282.52999425 329.49167049 297.08136725 329.49299622 311.63284302 C329.49307613 312.52918158 329.49315604 313.42552015 329.49323837 314.34902049 C329.49331908 315.24378975 329.49339979 316.13855902 329.49348295 317.06044251 C329.49486174 333.61404117 329.48308827 350.16760783 329.46517652 366.72119613 C329.45913744 372.58133417 329.45701664 378.44146633 329.45611191 384.30160713 C329.45474927 391.4394853 329.44584262 398.57730956 329.42744629 405.71516485 C329.41819663 409.35903761 329.41212432 413.00284131 329.4146347 416.64672661 C329.41722036 420.59105153 329.40435955 424.5352369 329.38981628 428.47953796 C329.39291349 429.6392464 329.39601069 430.79895483 329.39920175 431.99380594 C329.38952841 433.57181857 329.38952841 433.57181857 329.37965965 435.18171024 C329.3782508 436.09276935 329.37684195 437.00382845 329.37539041 437.94249541 C329.12239075 440.24050903 329.12239075 440.24050903 327.12239075 443.24050903 C326.95547432 445.91999057 326.95547432 445.91999057 327.12239075 448.80300903 C327.24739075 451.74441528 327.24739075 451.74441528 327.12239075 454.24050903 C326.46239075 454.90050903 325.80239075 455.56050903 325.12239075 456.24050903 C325.15332825 457.47800903 325.15332825 457.47800903 325.18489075 458.74050903 C325.16426575 459.56550903 325.14364075 460.39050903 325.12239075 461.24050903 C324.13239075 461.90050903 323.14239075 462.56050903 322.12239075 463.24050903 C321.39158808 465.21797507 320.72817328 467.22123392 320.12239075 469.24050903 C318.74379197 472.78547733 317.54853264 473.69321915 314.12239075 475.24050903 C313.79239075 475.90050903 313.46239075 476.56050903 313.12239075 477.24050903 C311.4759239 478.92713361 309.81056008 480.5956261 308.12239075 482.24050903 C308.12239075 481.58050903 308.12239075 480.92050903 308.12239075 480.24050903 C307.46239075 480.24050903 306.80239075 480.24050903 306.12239075 480.24050903 C305.79239075 481.56050903 305.46239075 482.88050903 305.12239075 484.24050903 C303.80239075 484.57050903 302.48239075 484.90050903 301.12239075 485.24050903 C301.12239075 485.57050903 301.12239075 485.90050903 301.12239075 486.24050903 C298.81239075 486.24050903 296.50239075 486.24050903 294.12239075 486.24050903 C294.12239075 486.90050903 294.12239075 487.56050903 294.12239075 488.24050903 C290.16239075 488.24050903 286.20239075 488.24050903 282.12239075 488.24050903 C282.12239075 488.90050903 282.12239075 489.56050903 282.12239075 490.24050903 C186.09239075 490.24050903 90.06239075 490.24050903 -8.87760925 490.24050903 C-8.87760925 489.58050903 -8.87760925 488.92050903 -8.87760925 488.24050903 C-9.72065613 488.26371216 -10.563703 488.28691528 -11.43229675 488.31082153 C-12.52799988 488.32886841 -13.623703 488.34691528 -14.75260925 488.36550903 C-15.84315613 488.38871216 -16.933703 488.41191528 -18.05729675 488.43582153 C-20.87760925 488.24050903 -20.87760925 488.24050903 -22.87760925 486.24050903 C-25.46115144 486.07363456 -25.46115144 486.07363456 -27.87760925 486.24050903 C-27.87760925 485.58050903 -27.87760925 484.92050903 -27.87760925 484.24050903 C-29.52760925 484.24050903 -31.17760925 484.24050903 -32.87760925 484.24050903 C-33.20760925 483.25050903 -33.53760925 482.26050903 -33.87760925 481.24050903 C-35.19760925 481.24050903 -36.51760925 481.24050903 -37.87760925 481.24050903 C-38.14573425 480.60113403 -38.41385925 479.96175903 -38.69010925 479.30300903 C-39.76428678 476.90919217 -39.76428678 476.90919217 -42.87760925 476.24050903 C-43.20760925 475.58050903 -43.53760925 474.92050903 -43.87760925 474.24050903 C-44.86760925 473.91050903 -45.85760925 473.58050903 -46.87760925 473.24050903 C-46.98073425 472.45675903 -47.08385925 471.67300903 -47.19010925 470.86550903 C-47.65355947 467.91005723 -47.65355947 467.91005723 -50.87760925 466.24050903 C-51.50260925 463.86550903 -51.50260925 463.86550903 -51.87760925 461.24050903 C-52.38365669 459.02655148 -52.86017318 457.27538118 -53.87760925 455.24050903 C-54.20760925 455.24050903 -54.53760925 455.24050903 -54.87760925 455.24050903 C-54.85440613 454.48125122 -54.831203 453.72199341 -54.80729675 452.93972778 C-54.78022644 451.448927 -54.78022644 451.448927 -54.75260925 449.92800903 C-54.72940613 448.94187622 -54.706203 447.95574341 -54.68229675 446.93972778 C-54.67078286 444.01644377 -54.67078286 444.01644377 -56.87760925 441.24050903 C-57.19997751 438.85440842 -57.39103126 436.58369233 -57.49452209 434.18516541 C-57.53213776 433.4091941 -57.56975342 432.63322279 -57.60850894 431.83373719 C-58.16623069 418.44031331 -58.01894836 405.01818449 -58.00833392 391.61549246 C-58.00604914 387.33929198 -58.00957464 383.06309542 -58.01231384 378.78689575 C-58.01673821 370.43228975 -58.01580987 362.07769278 -58.0129012 353.72308644 C-58.01063356 346.92544995 -58.01034052 340.12781597 -58.01142502 333.33017921 C-58.01157825 332.3589787 -58.01173148 331.38777818 -58.01188936 330.38714734 C-58.01220912 328.41351431 -58.01253333 326.43988128 -58.01286195 324.46624825 C-58.0157071 305.99975647 -58.01244512 287.53326966 -58.00706159 269.0667787 C-58.00259655 253.26246301 -58.00336888 237.45815467 -58.00798035 221.65383911 C-58.01334685 203.25353637 -58.01543028 184.85323798 -58.01236808 166.45293456 C-58.01204957 164.48605176 -58.0117352 162.51916895 -58.01142502 160.55228615 C-58.01127074 159.58481996 -58.01111647 158.61735377 -58.01095752 157.62057042 C-58.01009842 150.84198796 -58.01154213 144.0634083 -58.01390457 137.28482628 C-58.01672598 129.00816871 -58.01591543 120.73152061 -58.01062383 112.45486411 C-58.00801784 108.24160275 -58.00692829 104.0283571 -58.01027298 99.8150959 C-58.02261487 82.93336297 -57.94559335 66.09665657 -56.87760925 49.24050903 C-56.21760925 49.24050903 -55.55760925 49.24050903 -54.87760925 49.24050903 C-54.87760925 44.62050903 -54.87760925 40.00050903 -54.87760925 35.24050903 C-53.88760925 34.74550903 -53.88760925 34.74550903 -52.87760925 34.24050903 C-52.93948425 33.29175903 -53.00135925 32.34300903 -53.06510925 31.36550903 C-53.00323425 30.33425903 -52.94135925 29.30300903 -52.87760925 28.24050903 C-51.88760925 27.58050903 -50.89760925 26.92050903 -49.87760925 26.24050903 C-48.79652638 24.19506473 -48.79652638 24.19506473 -47.94010925 21.86550903 C-46.4249344 18.26043784 -45.05218527 15.67435065 -41.87760925 13.24050903 C-41.21760925 13.24050903 -40.55760925 13.24050903 -39.87760925 13.24050903 C-39.54760925 12.58050903 -39.21760925 11.92050903 -38.87760925 11.24050903 C-37.14284928 10.15950985 -35.36433617 9.14792341 -33.56510925 8.17800903 C-32.59960144 7.65078247 -31.63409363 7.12355591 -30.639328 6.58035278 C-28.30912896 5.44986018 -26.36313274 4.8393665 -23.87760925 4.24050903 C-22.88760925 3.58050903 -21.89760925 2.92050903 -20.87760925 2.24050903 C-18.31252972 2.10550485 -15.81721955 2.24338473 -13.25260925 2.36550903 C-8.71413616 2.12664203 -5.0361975 -0.03851972 0 0 Z " fill="#F5F5F5" transform="translate(100.87760925292969,3.759490966796875)"/>
<path d="M0 0 C0 0.66 0 1.32 0 2 C0.53753906 2.07734375 1.07507813 2.1546875 1.62890625 2.234375 C4.91988178 3.29702937 7.19184267 5.1587301 9.9375 7.25 C11.46697266 8.40242187 11.46697266 8.40242187 13.02734375 9.578125 C15.88773436 11.90853522 18.42390571 14.36266734 21 17 C28.54570916 24.12403718 36.34392991 30.89971358 44.29394531 37.56445312 C49.03720674 41.55563475 53.73706232 45.59816555 58.43115234 49.64697266 C59.85472944 50.87471375 61.28074324 52.09962803 62.70703125 53.32421875 C70.03382116 59.70326469 77.04101729 66.20515672 78.45703125 76.23828125 C78.86872002 84.99863521 76.93401931 90.80455517 72 98 C71.34 98 70.68 98 70 98 C69.95746094 98.56332031 69.91492188 99.12664062 69.87109375 99.70703125 C68.57936352 103.10723592 65.92709923 104.6454494 63.0625 106.6875 C57.69403758 110.64117444 52.77365937 114.7967674 47.92578125 119.3828125 C46 121 46 121 44 121 C44 121.66 44 122.32 44 123 C42.63671875 124.375 42.63671875 124.375 40.6875 126 C37.23743047 128.92585402 33.88519942 131.93001293 30.5625 135 C17.38818807 147 17.38818807 147 14 147 C13.73316406 147.598125 13.46632813 148.19625 13.19140625 148.8125 C9.67037003 155.27735338 2.70907551 158.67578456 -4 161 C-10.06371426 162.62420918 -14.40166341 161.46283412 -20 159 C-23.16743625 157.13202478 -24.73817192 155.47002722 -26 152 C-26 150.68 -26 149.36 -26 148 C-26.66 148 -27.32 148 -28 148 C-28 140.74 -28 133.48 -28 126 C-34.95202255 125.34569199 -41.74109859 124.89846928 -48.72265625 125.0625 C-51 125 -51 125 -54 124 C-55.91991795 123.99571205 -55.91991795 123.99571205 -58 124.234375 C-58.79494873 124.31212158 -59.58989746 124.38986816 -60.40893555 124.4699707 C-61.69151245 124.60858521 -61.69151245 124.60858521 -63 124.75 C-63.88921143 124.84434326 -64.77842285 124.93868652 -65.69458008 125.03588867 C-86.70580623 127.34777348 -106.54918777 131.13906044 -125.5625 140.8125 C-128 142 -128 142 -131 142 C-131 142.66 -131 143.32 -131 144 C-131.64324219 144.31710937 -132.28648437 144.63421875 -132.94921875 144.9609375 C-141.9103051 149.58848851 -149.41258126 155.53587515 -157.25390625 161.80078125 C-159 163 -159 163 -161 163 C-161.226875 163.556875 -161.45375 164.11375 -161.6875 164.6875 C-163.37550036 167.66159588 -165.46676517 169.72008865 -168 172 C-168.66 172 -169.32 172 -170 172 C-170.2475 172.5775 -170.495 173.155 -170.75 173.75 C-172.53195718 176.95752293 -174.7014109 179.35070545 -178 181 C-182.625215 181.55429885 -185.99767128 181.59321495 -190.0625 179.1875 C-192 177 -192 177 -192 174 C-192.66 174 -193.32 174 -194 174 C-194 171.36 -194 168.72 -194 166 C-193.34 166 -192.68 166 -192 166 C-192.03222656 165.2678125 -192.06445312 164.535625 -192.09765625 163.78125 C-191.93732955 148.81742469 -185.59697109 133.7286999 -178 121 C-177.505 119.515 -177.505 119.515 -177 118 C-176.34 118 -175.68 118 -175 118 C-174.7421875 117.29488281 -174.484375 116.58976562 -174.21875 115.86328125 C-172.89669814 112.75730685 -171.30252146 110.04021935 -169.5 107.1875 C-168.8915625 106.21167969 -168.283125 105.23585938 -167.65625 104.23046875 C-167.1096875 103.49441406 -166.563125 102.75835937 -166 102 C-165.34 102 -164.68 102 -164 102 C-164 101.34 -164 100.68 -164 100 C-163.34 100 -162.68 100 -162 100 C-161.6138855 98.88044922 -161.6138855 98.88044922 -161.2199707 97.73828125 C-159.94955211 94.88676735 -158.69981361 93.35132565 -156.48046875 91.1875 C-155.78759766 90.50429687 -155.09472656 89.82109375 -154.38085938 89.1171875 C-153.65705078 88.41851562 -152.93324219 87.71984375 -152.1875 87 C-151.11918945 85.95199219 -151.11918945 85.95199219 -150.02929688 84.8828125 C-148.6458621 83.52625296 -147.25877755 82.17340323 -145.86767578 80.82470703 C-144.28385769 79.27732711 -142.73351377 77.70576154 -141.19140625 76.1171875 C-138.9540061 73.95556382 -136.66644987 72.61680176 -133.9375 71.15234375 C-131.712801 69.82918608 -129.76927737 68.30652775 -127.75 66.6875 C-100.74362698 45.41659416 -62.32328925 33 -28 33 C-28 26.07 -28 19.14 -28 12 C-27.34 12 -26.68 12 -26 12 C-25.9175 11.29875 -25.835 10.5975 -25.75 9.875 C-24.79388166 6.20987971 -23.40564425 3.92578355 -21 1 C-14.98029493 -2.23008565 -6.47369955 -1.89955973 0 0 Z " fill="#9C0909" transform="translate(275,162)"/>
<path d="M0 0 C5.78450072 -0.34707004 9.96563531 -0.27233705 15 3 C18.70656373 10.41312747 15.58007543 20.90896153 13.6875 28.5 C13.47464355 29.36028809 13.26178711 30.22057617 13.04248047 31.10693359 C11.87071536 35.55056702 10.54964564 39.13110072 8 43 C7.2962586 44.60929099 6.62876804 46.23496336 6 47.875 C4.41177206 51.9555241 2.74583132 55.98458796 1 60 C0.34 60 -0.32 60 -1 60 C-1.268125 60.9075 -1.53625 61.815 -1.8125 62.75 C-2.91170619 65.75835378 -4.08608273 67.50358617 -6 70 C-6.70514846 72.14733927 -6.70514846 72.14733927 -7 74 C-7.99 74 -8.98 74 -10 74 C-10.66 75.65 -11.32 77.3 -12 79 C-12.66 79 -13.32 79 -14 79 C-14.37125 80.0828125 -14.37125 80.0828125 -14.75 81.1875 C-17.0402991 86.34067298 -20.88856939 90.20483329 -25 94 C-25.99 94.33 -26.98 94.66 -28 95 C-28.33 95.99 -28.66 96.98 -29 98 C-34.53369826 103.84441393 -41.47672357 108.3530162 -48 113 C-48.71027344 113.53367187 -49.42054688 114.06734375 -50.15234375 114.6171875 C-54.67231638 118 -54.67231638 118 -58 118 C-58 118.66 -58 119.32 -58 120 C-60.32673673 121.57810844 -62.6386604 123.02340319 -65.0625 124.4375 C-65.71927734 124.83259766 -66.37605469 125.22769531 -67.05273438 125.63476562 C-72.70784921 128.98326219 -78.39183238 131.67256037 -84.75 133.4375 C-88.17253278 134.42702512 -91.4866056 135.53695888 -94.8125 136.8125 C-112.55594605 143.28510919 -130.04901881 147.25267975 -149 147 C-148.94779297 148.918125 -148.94779297 148.918125 -148.89453125 150.875 C-148.86637213 152.58332009 -148.83907426 154.29165452 -148.8125 156 C-148.78736328 156.83917969 -148.76222656 157.67835938 -148.73632812 158.54296875 C-148.65683225 165.37961386 -149.57166623 171.05656513 -154.0625 176.5 C-156 178 -156 178 -158 178 C-158 178.66 -158 179.32 -158 180 C-162.29541155 182.14770577 -166.28938409 182.85789363 -171 182 C-179.15077064 179.1085255 -185.15023374 174.46419012 -191.328125 168.52734375 C-193.91128634 166.08391482 -196.57603506 163.87781428 -199.375 161.6875 C-202.82591229 158.97801594 -205.93808253 156.14940082 -209 153 C-209.825 152.34 -210.65 151.68 -211.5 151 C-214.20997701 148.8320184 -216.54546235 146.45453765 -219 144 C-223.60219575 139.74548504 -228.33177143 135.6972409 -233.25 131.8125 C-239.467504 126.87873334 -245.16164715 121.31635112 -250 115 C-250 114.34 -250 113.68 -250 113 C-250.99 112.67 -251.98 112.34 -253 112 C-254.96053241 103.49381908 -255.28489712 94.74577556 -251 87 C-250.70738281 86.34386719 -250.41476563 85.68773437 -250.11328125 85.01171875 C-248.85592545 82.73965476 -247.5586781 81.52672325 -245.5625 79.875 C-242.14263089 76.9826969 -238.80439086 74.02404616 -235.5 71 C-231.04656521 66.94310392 -226.56601687 62.92963821 -222 59 C-221.49114258 58.55946289 -220.98228516 58.11892578 -220.45800781 57.66503906 C-218.7260021 56.16781413 -216.98859362 54.67706749 -215.25 53.1875 C-214.6945752 52.70676025 -214.13915039 52.22602051 -213.56689453 51.73071289 C-210.84909038 49.41461746 -208.30713687 47.38867641 -205 46 C-205 45.34 -205 44.68 -205 44 C-203.26608049 42.39365985 -201.461909 40.8624713 -199.625 39.375 C-198.62726563 38.55773437 -197.62953125 37.74046875 -196.6015625 36.8984375 C-194 35 -194 35 -192 35 C-191.67 34.01 -191.34 33.02 -191 32 C-190.34 32 -189.68 32 -189 32 C-189 31.34 -189 30.68 -189 30 C-184.69887018 25.04718384 -179.55808217 21.22370012 -173 20 C-171.02330135 19.88308385 -169.0426139 19.82498496 -167.0625 19.8125 C-166.04285156 19.79832031 -165.02320313 19.78414063 -163.97265625 19.76953125 C-159.90073861 20.08522526 -157.15338371 20.84406456 -154.234375 23.76953125 C-153.74453125 24.44371094 -153.2546875 25.11789062 -152.75 25.8125 C-152.24984375 26.47894531 -151.7496875 27.14539063 -151.234375 27.83203125 C-149.06780873 31.63723467 -148.87453284 35.55259085 -148.90234375 39.86328125 C-148.90717773 41.19262695 -148.90717773 41.19262695 -148.91210938 42.54882812 C-148.92467773 43.9168457 -148.92467773 43.9168457 -148.9375 45.3125 C-148.94201172 46.24384766 -148.94652344 47.17519531 -148.95117188 48.13476562 C-148.96290766 50.42324373 -148.97932637 52.71158808 -149 55 C-140.00964817 55.84476979 -131.07525911 56.15855684 -122.04931641 56.13037109 C-119.97421207 56.12493241 -117.89931724 56.13039668 -115.82421875 56.13671875 C-114.4869787 56.13605909 -113.14973877 56.13478025 -111.8125 56.1328125 C-110.62269531 56.13168457 -109.43289063 56.13055664 -108.20703125 56.12939453 C-105.32817735 56.01324102 -102.79736194 55.6501181 -100 55 C-98.68620552 54.74605441 -97.37240362 54.49214721 -96.05859375 54.23828125 C-74.80281636 50.03305161 -47.67107716 44.53522614 -32.0625 28.125 C-29.91062776 25.90791951 -28.94116026 25.52520719 -26 25 C-25.67 24.34 -25.34 23.68 -25 23 C-24.01 22.67 -23.02 22.34 -22 22 C-20.31126121 20.35570171 -18.64694485 18.68615782 -17 17 C-15.6696875 15.948125 -15.6696875 15.948125 -14.3125 14.875 C-11.80846331 13.03438927 -11.80846331 13.03438927 -10 10 C-9.34 10 -8.68 10 -8 10 C-7.67 9.01 -7.34 8.02 -7 7 C-4.5625 4.3125 -4.5625 4.3125 -2 2 C-1.34 2 -0.68 2 0 2 C0 1.34 0 0.68 0 0 Z " fill="#01ACB3" transform="translate(381,296)"/>
<path d="M0 0 C0 29.04 0 58.08 0 88 C2.31 88.66 4.62 89.32 7 90 C7 90.33 7 90.66 7 91 C5.89205078 90.89171875 5.89205078 90.89171875 4.76171875 90.78125 C-1.4304438 90.21474974 -7.50511984 89.91641985 -13.72265625 90.0625 C-16 90 -16 90 -19 89 C-20.91991795 88.99571205 -20.91991795 88.99571205 -23 89.234375 C-23.79494873 89.31212158 -24.58989746 89.38986816 -25.40893555 89.4699707 C-26.69151245 89.60858521 -26.69151245 89.60858521 -28 89.75 C-28.88921143 89.84434326 -29.77842285 89.93868652 -30.69458008 90.03588867 C-51.70580623 92.34777348 -71.54918777 96.13906044 -90.5625 105.8125 C-93 107 -93 107 -96 107 C-96 107.66 -96 108.32 -96 109 C-96.64324219 109.31710937 -97.28648437 109.63421875 -97.94921875 109.9609375 C-106.9103051 114.58848851 -114.41258126 120.53587515 -122.25390625 126.80078125 C-124 128 -124 128 -126 128 C-126.226875 128.556875 -126.45375 129.11375 -126.6875 129.6875 C-128.37550036 132.66159588 -130.46676517 134.72008865 -133 137 C-133.66 137 -134.32 137 -135 137 C-135.2475 137.5775 -135.495 138.155 -135.75 138.75 C-137.53195718 141.95752293 -139.7014109 144.35070545 -143 146 C-147.625215 146.55429885 -150.99767128 146.59321495 -155.0625 144.1875 C-157 142 -157 142 -157 139 C-157.66 139 -158.32 139 -159 139 C-159 136.36 -159 133.72 -159 131 C-158.34 131 -157.68 131 -157 131 C-157.03222656 130.2678125 -157.06445312 129.535625 -157.09765625 128.78125 C-156.93732955 113.81742469 -150.59697109 98.7286999 -143 86 C-142.505 84.515 -142.505 84.515 -142 83 C-141.34 83 -140.68 83 -140 83 C-139.7421875 82.29488281 -139.484375 81.58976562 -139.21875 80.86328125 C-137.89669814 77.75730685 -136.30252146 75.04021935 -134.5 72.1875 C-133.8915625 71.21167969 -133.283125 70.23585938 -132.65625 69.23046875 C-132.1096875 68.49441406 -131.563125 67.75835937 -131 67 C-130.34 67 -129.68 67 -129 67 C-129 66.34 -129 65.68 -129 65 C-128.34 65 -127.68 65 -127 65 C-126.6138855 63.88044922 -126.6138855 63.88044922 -126.2199707 62.73828125 C-124.94955211 59.88676735 -123.69981361 58.35132565 -121.48046875 56.1875 C-120.44116211 55.16269531 -120.44116211 55.16269531 -119.38085938 54.1171875 C-118.65705078 53.41851562 -117.93324219 52.71984375 -117.1875 52 C-116.47529297 51.30132812 -115.76308594 50.60265625 -115.02929688 49.8828125 C-113.6458621 48.52625296 -112.25877755 47.17340323 -110.86767578 45.82470703 C-109.28385769 44.27732711 -107.73351377 42.70576154 -106.19140625 41.1171875 C-103.9540061 38.95556382 -101.66644987 37.61680176 -98.9375 36.15234375 C-96.712801 34.82918608 -94.76927737 33.30652775 -92.75 31.6875 C-71.47926902 14.93413162 -27.85218225 -6.96304556 0 0 Z " fill="#CB1F1F" transform="translate(240,197)"/>
<path d="M0 0 C5.78450072 -0.34707004 9.96563531 -0.27233705 15 3 C18.70656373 10.41312747 15.58007543 20.90896153 13.6875 28.5 C13.47464355 29.36028809 13.26178711 30.22057617 13.04248047 31.10693359 C11.87071536 35.55056702 10.54964564 39.13110072 8 43 C7.2962586 44.60929099 6.62876804 46.23496336 6 47.875 C4.41177206 51.9555241 2.74583132 55.98458796 1 60 C0.34 60 -0.32 60 -1 60 C-1.268125 60.9075 -1.53625 61.815 -1.8125 62.75 C-2.91170619 65.75835378 -4.08608273 67.50358617 -6 70 C-6.70514846 72.14733927 -6.70514846 72.14733927 -7 74 C-7.99 74 -8.98 74 -10 74 C-10.66 75.65 -11.32 77.3 -12 79 C-12.66 79 -13.32 79 -14 79 C-14.37125 80.0828125 -14.37125 80.0828125 -14.75 81.1875 C-17.0402991 86.34067298 -20.88856939 90.20483329 -25 94 C-26.485 94.495 -26.485 94.495 -28 95 C-28.495 96.485 -28.495 96.485 -29 98 C-34.53369826 103.84441393 -41.47672357 108.3530162 -48 113 C-48.71027344 113.53367187 -49.42054688 114.06734375 -50.15234375 114.6171875 C-54.67231638 118 -54.67231638 118 -58 118 C-58 118.66 -58 119.32 -58 120 C-60.32673673 121.57810844 -62.6386604 123.02340319 -65.0625 124.4375 C-65.71927734 124.83259766 -66.37605469 125.22769531 -67.05273438 125.63476562 C-72.70784921 128.98326219 -78.39183238 131.67256037 -84.75 133.4375 C-88.17253278 134.42702512 -91.4866056 135.53695888 -94.8125 136.8125 C-100.16878821 138.75406004 -105.56048972 140.55740896 -111 142.25 C-111.79897705 142.52046143 -112.5979541 142.79092285 -113.42114258 143.06958008 C-123.05626598 145.97404582 -130.02135767 145 -141 145 C-141 115.96 -141 86.92 -141 57 C-136.68783685 56.13756737 -133.25918664 55.89679722 -128.90625 55.9375 C-128.23710571 55.94128662 -127.56796143 55.94507324 -126.87854004 55.94897461 C-124.03467149 55.96522623 -121.19095055 55.99341803 -118.34716797 56.02050781 C-116.26270214 56.03864605 -114.17825984 56.05070397 -112.09375 56.0625 C-110.85302734 56.07410156 -109.61230469 56.08570313 -108.33398438 56.09765625 C-105.38915003 56.01139865 -102.85510128 55.67404967 -100 55 C-98.68620552 54.74605441 -97.37240362 54.49214721 -96.05859375 54.23828125 C-74.80281636 50.03305161 -47.67107716 44.53522614 -32.0625 28.125 C-29.91062776 25.90791951 -28.94116026 25.52520719 -26 25 C-25.67 24.34 -25.34 23.68 -25 23 C-24.01 22.67 -23.02 22.34 -22 22 C-20.31126121 20.35570171 -18.64694485 18.68615782 -17 17 C-15.6696875 15.948125 -15.6696875 15.948125 -14.3125 14.875 C-11.80846331 13.03438927 -11.80846331 13.03438927 -10 10 C-9.34 10 -8.68 10 -8 10 C-7.67 9.01 -7.34 8.02 -7 7 C-4.5625 4.3125 -4.5625 4.3125 -2 2 C-1.34 2 -0.68 2 0 2 C0 1.34 0 0.68 0 0 Z " fill="#01D7DF" transform="translate(381,296)"/>
<path d="M0 0 C3.78370678 0.78833376 5.29665701 2.01975193 7.9375 4.875 C10.09389884 7.12273801 11.82352818 8.89411691 14.5 10.5 C17.90372538 12.54223523 20.27943141 15.33179345 22.9375 18.2578125 C25.33181188 20.28028049 26.97595665 20.43082654 30 21 C31.39712274 22.95597184 32.73779907 24.95436401 34 27 C34.66 27 35.32 27 36 27 C38 29 38 29 38 32 C38.66 32 39.32 32 40 32 C40 32.66 40 33.32 40 34 C40.99 34.33 41.98 34.66 43 35 C44.15629692 36.15629692 45.30606121 37.31936822 46.4375 38.5 C48.13313447 40.21591626 48.13313447 40.21591626 51 42 C51 42.99 51 43.98 51 45 C51.66 45 52.32 45 53 45 C53 45.66 53 46.32 53 47 C53.99 47.33 54.98 47.66 56 48 C57.15629692 49.15629692 58.30606121 50.31936822 59.4375 51.5 C61.13313447 53.21591626 61.13313447 53.21591626 64 55 C64 55.99 64 56.98 64 58 C64.66 58 65.32 58 66 58 C66.20767502 59.02096771 66.41535004 60.04193542 66.62931824 61.09384155 C67.94605065 65.65214316 70.58360375 68.25605142 73.9309082 71.49853516 C74.53764374 72.10600082 75.14437927 72.71346649 75.76950073 73.33934021 C77.7683003 75.33467071 79.78420049 77.31171793 81.80078125 79.2890625 C83.19951192 80.67845707 84.59713484 82.06896765 85.99369812 83.46054077 C89.66828568 87.11607487 93.35762646 90.75635719 97.05029297 94.39361572 C100.79704656 98.0893195 104.52979522 101.79910718 108.26367188 105.5078125 C114.3003874 111.50063376 120.34550871 117.48481366 126.40205383 123.45759583 C127.45018335 124.49154461 128.49690084 125.52692756 129.54192543 126.56401443 C130.95766815 127.95830945 132.39478913 129.33079295 133.83244324 130.70248413 C136 133 136 133 137 136 C126.78434583 136.04675575 116.56871794 136.08208539 106.35297775 136.10362434 C101.60718705 136.11397241 96.86147063 136.12796306 92.11572266 136.15087891 C87.51857037 136.17293318 82.9214886 136.18463568 78.32428741 136.18975449 C76.58800398 136.19339279 74.8517235 136.20049301 73.11547089 136.21146011 C60.62143827 136.28709428 48.40950893 135.45081593 36 134 C36 133.34 36 132.68 36 132 C34.02 132 32.04 132 30 132 C29.505 131.01 29.505 131.01 29 130 C26.47266765 129.34444881 26.47266765 129.34444881 24 129 C24 128.34 24 127.68 24 127 C23.01 127 22.02 127 21 127 C19.33333333 125.33333333 17.66666667 123.66666667 16 122 C14.49953125 121.38318359 14.49953125 121.38318359 12.96875 120.75390625 C10 119 10 119 8.64453125 115.890625 C8.36996094 114.68921875 8.09539062 113.4878125 7.8125 112.25 C6.47527064 106.6024533 6.47527064 106.6024533 4.3125 101.25 C2.78061504 97.45676106 2.46827568 94.09520244 2.2109375 90.0390625 C2.21733466 88.00713712 2.21733466 88.00713712 1 87 C0.74165623 84.7120417 0.56692424 82.46138378 0.44140625 80.1640625 C0.39915421 79.39075592 0.35690216 78.61744934 0.31336975 77.82070923 C-0.33736447 63.82465126 -0.108474 49.78580663 -0.06866455 35.77825928 C-0.05829325 31.73499072 -0.05383783 27.69171563 -0.04882812 23.6484375 C-0.03821763 15.76560742 -0.0212315 7.88280861 0 0 Z " fill="#F6F4F2" transform="translate(288,9)"/>
<path d="M0 0 C0.81110664 -0.00170885 1.62221328 -0.0034177 2.45789891 -0.00517833 C5.18493759 -0.00848143 7.91173204 0.00254391 10.63874817 0.01345825 C12.58990473 0.01402219 14.54106171 0.01370615 16.49221802 0.01257324 C21.79769326 0.01199804 27.10307857 0.02377936 32.40853286 0.03772116 C37.94989173 0.05020072 43.49125253 0.05139682 49.03262329 0.05377197 C59.52983603 0.05999491 70.02700725 0.07641673 80.52420169 0.09647095 C92.47325214 0.11880465 104.42230455 0.12981701 116.37137067 0.13986182 C140.95506708 0.16078226 165.53872659 0.19597403 190.12239075 0.24050903 C190.12239075 0.90050903 190.12239075 1.56050903 190.12239075 2.24050903 C191.11239075 2.57050903 192.10239075 2.90050903 193.12239075 3.24050903 C194.14343626 4.21901098 195.14300284 5.2203133 196.12239075 6.24050903 C197.11239075 6.90050903 198.10239075 7.56050903 199.12239075 8.24050903 C199.12239075 9.23050903 199.12239075 10.22050903 199.12239075 11.24050903 C199.78239075 11.24050903 200.44239075 11.24050903 201.12239075 11.24050903 C201.12239075 11.90050903 201.12239075 12.56050903 201.12239075 13.24050903 C202.11239075 13.57050903 203.10239075 13.90050903 204.12239075 14.24050903 C205.27868767 15.39680595 206.42845196 16.55987725 207.55989075 17.74050903 C209.25552521 19.45642529 209.25552521 19.45642529 212.12239075 21.24050903 C212.12239075 22.23050903 212.12239075 23.22050903 212.12239075 24.24050903 C212.78239075 24.24050903 213.44239075 24.24050903 214.12239075 24.24050903 C214.12239075 24.90050903 214.12239075 25.56050903 214.12239075 26.24050903 C210.75636473 24.79364262 208.68424507 22.96073828 206.18489075 20.30300903 C203.31300005 17.34633928 200.67175753 15.33372534 197.12239075 13.24050903 C195.28038057 11.46413842 193.51595316 9.63541533 191.77082825 7.76394653 C190.09022806 6.00109608 190.09022806 6.00109608 187.12239075 5.24050903 C187.2309789 13.92618194 187.34380666 22.61178728 187.46173 31.29733849 C187.51638752 35.3324091 187.56970127 39.36748723 187.6197052 43.40261841 C187.82088268 64.4117867 187.82088268 64.4117867 188.595047 85.40457153 C188.63214279 86.11817841 188.66923859 86.83178528 188.7074585 87.5670166 C188.68068404 90.68234429 188.68068404 90.68234429 190.12239075 93.24050903 C190.44620582 95.29820665 190.73126822 97.3620578 190.99739075 99.42800903 C191.71808261 104.35006757 192.78442443 107.84513236 195.12239075 112.24050903 C195.58034916 114.29856311 196.01571262 116.36170746 196.43489075 118.42800903 C197.4418751 123.18990968 197.4418751 123.18990968 201.05989075 126.30300903 C202.57582825 126.76707153 202.57582825 126.76707153 204.12239075 127.24050903 C206.49739075 128.80300903 206.49739075 128.80300903 208.12239075 130.24050903 C208.12239075 130.90050903 208.12239075 131.56050903 208.12239075 132.24050903 C209.11239075 132.24050903 210.10239075 132.24050903 211.12239075 132.24050903 C211.12239075 132.90050903 211.12239075 133.56050903 211.12239075 134.24050903 C212.77239075 134.24050903 214.42239075 134.24050903 216.12239075 134.24050903 C216.45239075 135.23050903 216.78239075 136.22050903 217.12239075 137.24050903 C219.10239075 137.24050903 221.08239075 137.24050903 223.12239075 137.24050903 C223.12239075 137.90050903 223.12239075 138.56050903 223.12239075 139.24050903 C223.97961731 139.22890747 224.83684387 139.21730591 225.720047 139.20535278 C226.86344543 139.19632935 228.00684387 139.18730591 229.18489075 139.17800903 C230.31024231 139.16640747 231.43559387 139.15480591 232.595047 139.14285278 C236.12239075 139.24050903 236.12239075 139.24050903 239.32846069 139.73377991 C243.35275219 140.27127683 247.30130822 140.41398784 251.35261536 140.4458313 C252.14367676 140.4557309 252.93473816 140.46563049 253.74977112 140.47583008 C256.34139606 140.5071935 258.93303928 140.53210203 261.5247345 140.55691528 C263.33077446 140.57750659 265.13680984 140.59850361 266.94284058 140.61988831 C271.6790443 140.67488429 276.41528988 140.72439198 281.15156555 140.7727356 C285.99148755 140.82311548 290.83134933 140.87871519 295.67121887 140.93386841 C305.15489129 141.04117479 314.63861616 141.14268002 324.12239075 141.24050903 C323.46239075 140.45675903 322.80239075 139.67300903 322.12239075 138.86550903 C320.12239075 136.24050903 320.12239075 136.24050903 320.12239075 134.24050903 C319.59103516 134.03316132 319.05967957 133.8258136 318.51222229 133.61218262 C315.14819571 131.68135765 312.60517126 129.01810668 309.88508606 126.29373169 C309.27002701 125.68538986 308.65496796 125.07704803 308.02127075 124.45027161 C305.99235114 122.44033145 303.97104218 120.42294667 301.95051575 118.40457153 C300.54390587 117.00438749 299.13714516 115.60435498 297.73023987 114.20446777 C294.78462543 111.27082446 291.84317111 108.33307979 288.90412903 105.39285278 C285.13226198 101.62078208 281.34680443 97.86267659 277.55768204 94.10795021 C274.64958687 91.22205373 271.7505884 88.32715192 268.85410309 85.42960739 C267.46181487 84.03968383 266.06627202 82.6530127 264.66747284 81.26964188 C262.71608792 79.33778225 260.77770282 77.39374684 258.84211731 75.44607544 C258.25930496 74.87450211 257.67649261 74.30292877 257.07601929 73.71403503 C253.12239075 69.69714844 253.12239075 69.69714844 253.12239075 65.24050903 C256.2078896 66.26900865 257.25609817 67.33296443 259.43489075 69.61550903 C261.21133929 71.39469134 261.21133929 71.39469134 263.80989075 73.24050903 C264.57301575 73.90050903 265.33614075 74.56050903 266.12239075 75.24050903 C266.12239075 76.23050903 266.12239075 77.22050903 266.12239075 78.24050903 C267.11239075 78.57050903 268.10239075 78.90050903 269.12239075 79.24050903 C270.50088178 80.52710066 271.827681 81.86963989 273.12239075 83.24050903 C274.00926575 84.08613403 274.89614075 84.93175903 275.80989075 85.80300903 C278.12239075 88.24050903 278.12239075 88.24050903 279.12239075 91.24050903 C280.11239075 91.57050903 281.10239075 91.90050903 282.12239075 92.24050903 C283.50088178 93.52710066 284.827681 94.86963989 286.12239075 96.24050903 C287.00926575 97.08613403 287.89614075 97.93175903 288.80989075 98.80300903 C291.12239075 101.24050903 291.12239075 101.24050903 292.12239075 104.24050903 C293.11239075 104.57050903 294.10239075 104.90050903 295.12239075 105.24050903 C296.50088178 106.52710066 297.827681 107.86963989 299.12239075 109.24050903 C300.00926575 110.08613403 300.89614075 110.93175903 301.80989075 111.80300903 C304.12239075 114.24050903 304.12239075 114.24050903 305.12239075 117.24050903 C306.11239075 117.57050903 307.10239075 117.90050903 308.12239075 118.24050903 C309.50088178 119.52710066 310.827681 120.86963989 312.12239075 122.24050903 C313.00926575 123.08613403 313.89614075 123.93175903 314.80989075 124.80300903 C317.12239075 127.24050903 317.12239075 127.24050903 318.12239075 130.24050903 C318.78239075 130.24050903 319.44239075 130.24050903 320.12239075 130.24050903 C320.12239075 130.90050903 320.12239075 131.56050903 320.12239075 132.24050903 C321.11239075 132.57050903 322.10239075 132.90050903 323.12239075 133.24050903 C323.78239075 133.90050903 324.44239075 134.56050903 325.12239075 135.24050903 C325.81337408 135.83482583 326.50435741 136.42914264 327.21627963 137.04146904 C329.54376045 139.72663433 329.62184201 140.91781108 329.62016869 144.42514896 C329.62936628 145.47976513 329.63856387 146.5343813 329.64804018 147.62095553 C329.63260949 149.35717209 329.63260949 149.35717209 329.61686707 151.12846375 C329.6216959 152.35891401 329.62652473 153.58936427 329.63149989 154.8571009 C329.64083439 158.27447093 329.6321823 161.69094592 329.61597133 165.10823429 C329.60282614 168.79266122 329.61271229 172.47703486 329.61973572 176.16146851 C329.62982491 183.37969908 329.61853032 190.59774657 329.60003512 197.81595439 C329.57928137 206.21711134 329.57940711 214.61822855 329.58038028 223.01940631 C329.58138183 238.00582496 329.56304958 252.99215828 329.53401184 267.97854614 C329.50583133 282.52999425 329.49167049 297.08136725 329.49299622 311.63284302 C329.49307613 312.52918158 329.49315604 313.42552015 329.49323837 314.34902049 C329.49331908 315.24378975 329.49339979 316.13855902 329.49348295 317.06044251 C329.49486174 333.61404117 329.48308827 350.16760783 329.46517652 366.72119613 C329.45913744 372.58133417 329.45701664 378.44146633 329.45611191 384.30160713 C329.45474927 391.4394853 329.44584262 398.57730956 329.42744629 405.71516485 C329.41819663 409.35903761 329.41212432 413.00284131 329.4146347 416.64672661 C329.41722036 420.59105153 329.40435955 424.5352369 329.38981628 428.47953796 C329.39291349 429.6392464 329.39601069 430.79895483 329.39920175 431.99380594 C329.38952841 433.57181857 329.38952841 433.57181857 329.37965965 435.18171024 C329.3782508 436.09276935 329.37684195 437.00382845 329.37539041 437.94249541 C329.12239075 440.24050903 329.12239075 440.24050903 327.12239075 443.24050903 C326.95547432 445.91999057 326.95547432 445.91999057 327.12239075 448.80300903 C327.24739075 451.74441528 327.24739075 451.74441528 327.12239075 454.24050903 C326.46239075 454.90050903 325.80239075 455.56050903 325.12239075 456.24050903 C325.15332825 457.47800903 325.15332825 457.47800903 325.18489075 458.74050903 C325.16426575 459.56550903 325.14364075 460.39050903 325.12239075 461.24050903 C324.13239075 461.90050903 323.14239075 462.56050903 322.12239075 463.24050903 C321.39158808 465.21797507 320.72817328 467.22123392 320.12239075 469.24050903 C319.4842373 470.58772186 318.82913704 471.92798021 318.12239075 473.24050903 C317.13239075 472.91050903 316.14239075 472.58050903 315.12239075 472.24050903 C315.72051575 471.33300903 316.31864075 470.42550903 316.93489075 469.49050903 C319.45378682 465.14943283 320.42854039 460.58265088 321.5091095 455.71707153 C322.12239075 453.24050903 322.12239075 453.24050903 323.12239075 452.24050903 C323.26666947 450.86205224 323.34927345 449.47699163 323.40364075 448.09207153 C323.44102356 447.25160278 323.47840637 446.41113403 323.516922 445.54519653 C323.56912903 444.21875122 323.56912903 444.21875122 323.62239075 442.86550903 C323.69136543 441.12836887 323.76412658 439.39137385 323.84114075 437.65457153 C323.87143372 436.88065063 323.90172668 436.10672974 323.93293762 435.30935669 C324.12239075 433.24050903 324.12239075 433.24050903 325.12239075 430.24050903 C325.21761676 428.64118234 325.25611321 427.0381838 325.26105595 425.4360323 C325.26653039 424.44077481 325.27200483 423.44551732 325.27764517 422.42010051 C325.27862328 421.32380972 325.27960138 420.22751893 325.28060913 419.0980072 C325.2880161 417.35456898 325.2880161 417.35456898 325.2955727 415.57590979 C325.30830108 412.34463897 325.31657605 409.11339149 325.32299936 405.88210309 C325.33099739 402.39949311 325.34469722 398.9169051 325.35771179 395.43431091 C325.37948301 389.39877319 325.39762514 383.36323325 325.41331673 377.32767677 C325.43600947 368.60122827 325.46415313 359.87480408 325.493636 351.14837619 C325.54131922 336.9910282 325.58458143 322.83367029 325.62507629 308.67630005 C325.66442751 294.92206041 325.70585284 281.16782961 325.75007629 267.41360474 C325.7541627 266.14232688 325.7541627 266.14232688 325.75833166 264.84536663 C325.77201108 260.59370219 325.78573137 256.34203788 325.79947197 252.09037364 C325.91344821 216.80710373 326.02025503 181.52381512 326.12239075 146.24050903 C324.45561028 146.24717087 324.45561028 146.24717087 322.75515747 146.25396729 C312.23717631 146.29466924 301.71921132 146.32456786 291.20116901 146.34413338 C285.79491177 146.35453062 280.38871857 146.36861497 274.98249817 146.39138794 C269.75644496 146.41326196 264.53045301 146.42510812 259.30435753 146.43026352 C257.31946538 146.43393331 255.33457624 146.44109878 253.34971046 146.45196915 C240.26640112 146.52071334 227.69580439 146.33417859 215.12239075 142.24050903 C215.12239075 141.58050903 215.12239075 140.92050903 215.12239075 140.24050903 C213.807547 140.08582153 213.807547 140.08582153 212.46614075 139.92800903 C205.10063269 138.41360551 198.78095053 133.83255591 194.62239075 127.61550903 C193.769067 126.16878199 192.93290465 124.71164729 192.12239075 123.24050903 C191.54489075 122.33300903 190.96739075 121.42550903 190.37239075 120.49050903 C187.81573838 115.88853478 186.87551951 112.54824064 187.12239075 107.24050903 C186.46239075 107.24050903 185.80239075 107.24050903 185.12239075 107.24050903 C185.06180481 106.39746216 185.00121887 105.55441528 184.938797 104.68582153 C184.85500793 103.59011841 184.77121887 102.49441528 184.68489075 101.36550903 C184.60367981 100.27496216 184.52246887 99.18441528 184.438797 98.06082153 C184.29237371 95.29321932 184.29237371 95.29321932 183.12239075 93.24050903 C183.02911545 90.43320778 182.9966315 87.65089805 183.00886536 84.84353638 C183.00871933 83.97517654 183.0085733 83.10681671 183.00842285 82.21214294 C183.00912114 79.33355232 183.01690965 76.4550259 183.0247345 73.57644653 C183.02659897 71.58390335 183.02802274 69.59135972 183.02902222 67.59881592 C183.03284506 62.34791809 183.04267337 57.09704781 183.0537262 51.84616089 C183.06394531 46.49063489 183.06852091 41.13510446 183.07356262 35.77957153 C183.08429583 25.26653858 183.10136948 14.75352609 183.12239075 4.24050903 C160.2940001 4.34820047 137.4656399 4.4610385 114.63730431 4.57984829 C104.035501 4.63490786 93.43369434 4.68834201 82.8318634 4.73782349 C73.58129133 4.78100255 64.33074131 4.82735989 55.08020365 4.87738758 C50.19125198 4.90372033 45.3023039 4.92856099 40.41332626 4.94958305 C16.18504213 5.00069939 16.18504213 5.00069939 -8.03141785 5.67044067 C-8.86851603 5.70480697 -9.7056142 5.73917326 -10.56807899 5.77458096 C-17.35634076 6.12345129 -23.88858507 7.17185151 -29.97917175 10.33035278 C-32.37313425 11.47807555 -34.25666716 11.38611693 -36.87760925 11.24050903 C-36.87760925 11.90050903 -36.87760925 12.56050903 -36.87760925 13.24050903 C-37.86760925 13.24050903 -38.85760925 13.24050903 -39.87760925 13.24050903 C-38.43771982 10.36073016 -36.37626688 9.69342778 -33.56510925 8.17800903 C-32.59960144 7.65078247 -31.63409363 7.12355591 -30.639328 6.58035278 C-28.30912896 5.44986018 -26.36313274 4.8393665 -23.87760925 4.24050903 C-22.88760925 3.58050903 -21.89760925 2.92050903 -20.87760925 2.24050903 C-18.31252972 2.10550485 -15.81721955 2.24338473 -13.25260925 2.36550903 C-8.71413616 2.12664203 -5.0361975 -0.03851972 0 0 Z " fill="#CDCDCC" transform="translate(100.87760925292969,3.759490966796875)"/>
<path d="M0 0 C0.66 0.33 1.32 0.66 2 1 C0.7260411 3.03833424 -0.61061923 5.03852126 -2 7 C-2.66 7 -3.32 7 -4 7 C-3.938125 7.721875 -3.87625 8.44375 -3.8125 9.1875 C-4 12 -4 12 -5.4387207 14.33081055 C-7.09822022 17.16791894 -7.64517456 19.29262918 -8.16796875 22.51953125 C-8.33876953 23.54111328 -8.50957031 24.56269531 -8.68554688 25.61523438 C-8.85119141 26.67033203 -9.01683594 27.72542969 -9.1875 28.8125 C-9.36474609 29.88693359 -9.54199219 30.96136719 -9.72460938 32.06835938 C-10.15915327 34.71085606 -10.58393549 37.3545417 -11 40 C-11.66 40 -12.32 40 -13 40 C-12.89540446 88.57944743 -12.78562997 137.15888077 -12.66888306 185.7383006 C-12.65511303 191.46998352 -12.641386 197.20166653 -12.62768555 202.93334961 C-12.62495724 204.0744529 -12.62222894 205.21555619 -12.61941796 206.39123837 C-12.57531006 224.88212061 -12.53468775 243.37300895 -12.49534739 261.86390188 C-12.45492092 280.8289335 -12.41076306 299.79395377 -12.36312145 318.75896865 C-12.33382833 330.46693315 -12.30746625 342.1748968 -12.28482103 353.88287608 C-12.26902634 361.90504494 -12.24961619 369.92719991 -12.22733159 377.94935336 C-12.21457106 382.58175661 -12.20343465 387.21414917 -12.19658089 391.84656525 C-12.19027504 396.08493118 -12.17944423 400.32326023 -12.1649667 404.56160591 C-12.16052815 406.0973469 -12.15777094 407.63309384 -12.15683801 409.16884097 C-12.15532987 411.25224516 -12.1477649 413.33554244 -12.1386652 415.41892529 C-12.13600716 416.57745201 -12.13334911 417.73597874 -12.13061053 418.92961234 C-12.01090203 421.7437154 -11.60122046 424.25688937 -11 427 C-10.93466565 428.93651019 -10.91415697 430.87502861 -10.9375 432.8125 C-10.94652344 433.78832031 -10.95554687 434.76414062 -10.96484375 435.76953125 C-10.97644531 436.50558594 -10.98804688 437.24164063 -11 438 C-10.34 438 -9.68 438 -9 438 C-8.75765625 439.05960937 -8.5153125 440.11921875 -8.265625 441.2109375 C-7.92794713 442.59916873 -7.58935782 443.98717848 -7.25 445.375 C-7.09273437 446.07367188 -6.93546875 446.77234375 -6.7734375 447.4921875 C-5.79613783 451.61583578 -5.79613783 451.61583578 -2.859375 454.4765625 C-1.93898438 454.73566406 -1.93898438 454.73566406 -1 455 C-1 455.66 -1 456.32 -1 457 C-0.34 457 0.32 457 1 457 C1.33 458.98 1.66 460.96 2 463 C1.01 463 0.02 463 -1 463 C-1.33 462.34 -1.66 461.68 -2 461 C-2.99 460.67 -3.98 460.34 -5 460 C-5.103125 459.21625 -5.20625 458.4325 -5.3125 457.625 C-5.77595022 454.66954819 -5.77595022 454.66954819 -9 453 C-9.625 450.625 -9.625 450.625 -10 448 C-10.50604744 445.78604245 -10.98256393 444.03487215 -12 442 C-12.33 442 -12.66 442 -13 442 C-12.97679687 441.24074219 -12.95359375 440.48148437 -12.9296875 439.69921875 C-12.90261719 438.20841797 -12.90261719 438.20841797 -12.875 436.6875 C-12.85179687 435.70136719 -12.82859375 434.71523438 -12.8046875 433.69921875 C-12.79317361 430.77593473 -12.79317361 430.77593473 -15 428 C-15.32236826 425.61389939 -15.51342201 423.34318329 -15.61691284 420.94465637 C-15.6545285 420.16868506 -15.69214416 419.39271375 -15.73089969 418.59322816 C-16.28862144 405.19980428 -16.1413391 391.77767546 -16.13072467 378.37498343 C-16.12843989 374.09878295 -16.13196539 369.82258639 -16.13470459 365.54638672 C-16.13912896 357.19178072 -16.13820062 348.83718375 -16.13529195 340.48257741 C-16.1330243 333.68494092 -16.13273127 326.88730694 -16.13381577 320.08967018 C-16.133969 319.11846966 -16.13412223 318.14726914 -16.13428011 317.14663831 C-16.13459987 315.17300528 -16.13492408 313.19937225 -16.1352527 311.22573922 C-16.13809785 292.75924743 -16.13483587 274.29276063 -16.12945233 255.82626966 C-16.1249873 240.02195397 -16.12575963 224.21764563 -16.13037109 208.41333008 C-16.1357376 190.01302733 -16.13782102 171.61272895 -16.13475883 153.21242553 C-16.13444032 151.24554273 -16.13412595 149.27865992 -16.13381577 147.31177711 C-16.13366149 146.34431092 -16.13350721 145.37684473 -16.13334826 144.38006138 C-16.13248917 137.60147893 -16.13393288 130.82289927 -16.13629532 124.04431725 C-16.13911673 115.76765968 -16.13830618 107.49101158 -16.13301457 99.21435507 C-16.13040859 95.00109371 -16.12931903 90.78784807 -16.13266373 86.57458687 C-16.14500561 69.69285394 -16.0679841 52.85614753 -15 36 C-14.34 36 -13.68 36 -13 36 C-13 31.38 -13 26.76 -13 22 C-12.34 21.67 -11.68 21.34 -11 21 C-11.061875 20.05125 -11.12375 19.1025 -11.1875 18.125 C-11.125625 17.09375 -11.06375 16.0625 -11 15 C-10.01 14.34 -9.02 13.68 -8 13 C-6.91891713 10.9545557 -6.91891713 10.9545557 -6.0625 8.625 C-4.55115312 5.00126868 -3.08989218 2.53812572 0 0 Z " fill="#0A0A0A" transform="translate(59,17)"/>
<path d="M0 0 C3.08549886 1.02849962 4.13370742 2.0924554 6.3125 4.375 C8.08894854 6.15418231 8.08894854 6.15418231 10.6875 8 C11.450625 8.66 12.21375 9.32 13 10 C13 10.99 13 11.98 13 13 C13.99 13.33 14.98 13.66 16 14 C17.37849103 15.28659163 18.70529025 16.62913085 20 18 C20.886875 18.845625 21.77375 19.69125 22.6875 20.5625 C25 23 25 23 26 26 C26.99 26.33 27.98 26.66 29 27 C30.37849103 28.28659163 31.70529025 29.62913085 33 31 C33.886875 31.845625 34.77375 32.69125 35.6875 33.5625 C38 36 38 36 39 39 C39.99 39.33 40.98 39.66 42 40 C43.37849103 41.28659163 44.70529025 42.62913085 46 44 C46.886875 44.845625 47.77375 45.69125 48.6875 46.5625 C51 49 51 49 52 52 C52.99 52.33 53.98 52.66 55 53 C56.37849103 54.28659163 57.70529025 55.62913085 59 57 C59.886875 57.845625 60.77375 58.69125 61.6875 59.5625 C64 62 64 62 65 65 C65.66 65 66.32 65 67 65 C67 65.66 67 66.32 67 67 C68.485 67.495 68.485 67.495 70 68 C70.66 68.66 71.32 69.32 72 70 C72.69098333 70.5943168 73.38196666 71.1886336 74.09388888 71.80096 C76.4213697 74.48612529 76.49945126 75.67730204 76.49777794 79.18463993 C76.50697553 80.2392561 76.51617312 81.29387226 76.52564943 82.38044649 C76.5153623 83.53792421 76.50507518 84.69540192 76.49447632 85.88795471 C76.49930515 87.11840497 76.50413398 88.34885524 76.50910914 89.61659187 C76.51844364 93.0339619 76.50979155 96.45043689 76.49358058 99.86772525 C76.48043539 103.55215218 76.49032155 107.23652583 76.49734497 110.92095947 C76.50743416 118.13919005 76.49613957 125.35723753 76.47764437 132.57544536 C76.45689063 140.97660231 76.45701636 149.37771951 76.45798953 157.77889728 C76.45899108 172.76531593 76.44065883 187.75164925 76.41162109 202.73803711 C76.38344058 217.28948521 76.36927974 231.84085822 76.37060547 246.39233398 C76.37072534 247.73684183 76.37072534 247.73684183 76.37084763 249.10851146 C76.37096869 250.45066535 76.37096869 250.45066535 76.3710922 251.81993347 C76.37247099 268.37353213 76.36069753 284.9270988 76.34278577 301.4806871 C76.3367467 307.34082513 76.3346259 313.2009573 76.33372116 319.0610981 C76.33235852 326.19897627 76.32345187 333.33680053 76.30505554 340.47465581 C76.29580588 344.11852857 76.28973358 347.76233228 76.29224396 351.40621758 C76.29482962 355.35054249 76.2819688 359.29472786 76.26742554 363.23902893 C76.27052274 364.39873736 76.27361995 365.5584458 76.276811 366.75329691 C76.26713767 368.33130954 76.26713767 368.33130954 76.25726891 369.94120121 C76.25586006 370.85226031 76.25445121 371.76331942 76.25299966 372.70198637 C76 375 76 375 74 378 C73.83308357 380.67948153 73.83308357 380.67948153 74 383.5625 C74.125 386.50390625 74.125 386.50390625 74 389 C73.34 389.66 72.68 390.32 72 391 C72.020625 391.825 72.04125 392.65 72.0625 393.5 C72.041875 394.325 72.02125 395.15 72 396 C71.01 396.66 70.02 397.32 69 398 C68.26919734 399.97746603 67.60578253 401.98072489 67 404 C66.36184656 405.34721283 65.70674629 406.68747118 65 408 C64.01 407.67 63.02 407.34 62 407 C62.598125 406.0925 63.19625 405.185 63.8125 404.25 C66.33139607 399.9089238 67.30614964 395.34214184 68.38671875 390.4765625 C69 388 69 388 70 387 C70.14427873 385.62154321 70.2268827 384.2364826 70.28125 382.8515625 C70.31863281 382.01109375 70.35601562 381.170625 70.39453125 380.3046875 C70.42933594 379.42039062 70.46414063 378.53609375 70.5 377.625 C70.56897468 375.88785983 70.64173583 374.15086482 70.71875 372.4140625 C70.74904297 371.6401416 70.77933594 370.8662207 70.81054688 370.06884766 C71 368 71 368 72 365 C72.09410372 363.36788997 72.13090094 361.73219223 72.13422108 360.09737492 C72.14090784 358.57161322 72.14090784 358.57161322 72.14772969 357.01502806 C72.14754533 355.89422911 72.14736097 354.77343016 72.14717102 353.6186676 C72.15084771 352.43061285 72.1545244 351.24255811 72.1583125 350.0185017 C72.16744111 346.7151303 72.17204939 343.4118086 72.17470181 340.10842931 C72.17860447 336.54803722 72.18818263 332.98765952 72.19691467 329.42727661 C72.21667712 320.82777174 72.22674367 312.2282657 72.23564246 303.6287438 C72.24002453 299.58121454 72.24539144 295.53368659 72.25063133 291.48615837 C72.26764114 278.03603798 72.28213708 264.58591841 72.28938007 251.13578892 C72.29129002 247.64545757 72.29321035 244.15512624 72.29516602 240.66479492 C72.29589163 239.36351019 72.29589163 239.36351019 72.2966319 238.03593688 C72.3049389 223.97086092 72.33028818 209.90586981 72.36274669 195.84083093 C72.39578276 181.40819654 72.41382558 166.97560534 72.41702431 152.54293293 C72.4191923 144.4363144 72.42798329 136.32981974 72.45348549 128.22323799 C72.47514516 121.32213628 72.48326626 114.42118852 72.47351871 107.52005667 C72.46896055 103.9974814 72.47094741 100.4752241 72.49028015 96.95269203 C72.51103744 93.1377664 72.50097006 89.32328363 72.48774719 85.50831604 C72.49871644 84.38974781 72.50968568 83.27117958 72.52098733 82.11871535 C72.51240644 81.09893314 72.50382555 80.07915093 72.49498463 79.02846622 C72.49596144 78.1476224 72.49693824 77.26677857 72.49794465 76.3592425 C71.83416682 73.21428883 70.42989047 72.03407272 68 70 C66.83522881 69.32124062 66.83522881 69.32124062 65.64692688 68.62876892 C62.17043404 66.48953208 59.52302381 63.81811198 56.64916992 60.93969727 C56.03396484 60.33120941 55.41875977 59.72272156 54.78491211 59.09579468 C52.76145185 57.0912693 50.74555934 55.07934298 48.73046875 53.06640625 C47.32528712 51.66765245 45.91995557 50.26904925 44.51448059 48.87059021 C41.57484849 45.94291725 38.639364 43.01115551 35.70629883 40.0769043 C31.94230762 36.31270925 28.16471364 32.5624917 24.38347912 28.81562901 C21.47967672 25.93402215 18.58496788 23.04341325 15.69277382 20.15015984 C14.30327691 18.76302711 12.91052641 17.37914576 11.51451683 15.99856758 C9.56803127 14.07160528 7.63454392 12.13247099 5.70385742 10.18969727 C5.12261612 9.61969498 4.54137482 9.04969269 3.94252014 8.4624176 C0 4.45664279 0 4.45664279 0 0 Z " fill="#575757" transform="translate(354,69)"/>
<path d="M0 0 C0.81110664 -0.00170885 1.62221328 -0.0034177 2.45789891 -0.00517833 C5.18493759 -0.00848143 7.91173204 0.00254391 10.63874817 0.01345825 C12.58990473 0.01402219 14.54106171 0.01370615 16.49221802 0.01257324 C21.79769326 0.01199804 27.10307857 0.02377936 32.40853286 0.03772116 C37.94989173 0.05020072 43.49125253 0.05139682 49.03262329 0.05377197 C59.52983603 0.05999491 70.02700725 0.07641673 80.52420169 0.09647095 C92.47325214 0.11880465 104.42230455 0.12981701 116.37137067 0.13986182 C140.95506708 0.16078226 165.53872659 0.19597403 190.12239075 0.24050903 C190.12239075 0.90050903 190.12239075 1.56050903 190.12239075 2.24050903 C191.11239075 2.57050903 192.10239075 2.90050903 193.12239075 3.24050903 C194.14343626 4.21901098 195.14300284 5.2203133 196.12239075 6.24050903 C197.11239075 6.90050903 198.10239075 7.56050903 199.12239075 8.24050903 C199.12239075 9.23050903 199.12239075 10.22050903 199.12239075 11.24050903 C199.78239075 11.24050903 200.44239075 11.24050903 201.12239075 11.24050903 C201.12239075 11.90050903 201.12239075 12.56050903 201.12239075 13.24050903 C202.11239075 13.57050903 203.10239075 13.90050903 204.12239075 14.24050903 C205.27868767 15.39680595 206.42845196 16.55987725 207.55989075 17.74050903 C209.25552521 19.45642529 209.25552521 19.45642529 212.12239075 21.24050903 C212.12239075 22.23050903 212.12239075 23.22050903 212.12239075 24.24050903 C212.78239075 24.24050903 213.44239075 24.24050903 214.12239075 24.24050903 C214.12239075 24.90050903 214.12239075 25.56050903 214.12239075 26.24050903 C210.75636473 24.79364262 208.68424507 22.96073828 206.18489075 20.30300903 C203.31300005 17.34633928 200.67175753 15.33372534 197.12239075 13.24050903 C190.71258683 7.42090119 190.71258683 7.42090119 189.12239075 4.24050903 C187.80239075 4.57050903 186.48239075 4.90050903 185.12239075 5.24050903 C185.0754156 14.7006229 185.04019883 24.16069477 185.0187664 33.62090111 C185.00846413 38.01677025 184.99456358 42.41255788 184.97151184 46.80838013 C184.86803648 67.05816191 185.03905251 87.07473308 187.12239075 107.24050903 C186.46239075 107.24050903 185.80239075 107.24050903 185.12239075 107.24050903 C185.06180481 106.39746216 185.00121887 105.55441528 184.938797 104.68582153 C184.85500793 103.59011841 184.77121887 102.49441528 184.68489075 101.36550903 C184.60367981 100.27496216 184.52246887 99.18441528 184.438797 98.06082153 C184.29237371 95.29321932 184.29237371 95.29321932 183.12239075 93.24050903 C183.02911545 90.43320778 182.9966315 87.65089805 183.00886536 84.84353638 C183.00871933 83.97517654 183.0085733 83.10681671 183.00842285 82.21214294 C183.00912114 79.33355232 183.01690965 76.4550259 183.0247345 73.57644653 C183.02659897 71.58390335 183.02802274 69.59135972 183.02902222 67.59881592 C183.03284506 62.34791809 183.04267337 57.09704781 183.0537262 51.84616089 C183.06394531 46.49063489 183.06852091 41.13510446 183.07356262 35.77957153 C183.08429583 25.26653858 183.10136948 14.75352609 183.12239075 4.24050903 C160.2940001 4.34820047 137.4656399 4.4610385 114.63730431 4.57984829 C104.035501 4.63490786 93.43369434 4.68834201 82.8318634 4.73782349 C73.58129133 4.78100255 64.33074131 4.82735989 55.08020365 4.87738758 C50.19125198 4.90372033 45.3023039 4.92856099 40.41332626 4.94958305 C16.18504213 5.00069939 16.18504213 5.00069939 -8.03141785 5.67044067 C-8.86851603 5.70480697 -9.7056142 5.73917326 -10.56807899 5.77458096 C-17.35634076 6.12345129 -23.88858507 7.17185151 -29.97917175 10.33035278 C-32.37313425 11.47807555 -34.25666716 11.38611693 -36.87760925 11.24050903 C-36.87760925 11.90050903 -36.87760925 12.56050903 -36.87760925 13.24050903 C-37.86760925 13.24050903 -38.85760925 13.24050903 -39.87760925 13.24050903 C-38.43771982 10.36073016 -36.37626688 9.69342778 -33.56510925 8.17800903 C-32.59960144 7.65078247 -31.63409363 7.12355591 -30.639328 6.58035278 C-28.30912896 5.44986018 -26.36313274 4.8393665 -23.87760925 4.24050903 C-22.88760925 3.58050903 -21.89760925 2.92050903 -20.87760925 2.24050903 C-18.31252972 2.10550485 -15.81721955 2.24338473 -13.25260925 2.36550903 C-8.71413616 2.12664203 -5.0361975 -0.03851972 0 0 Z " fill="#E8E8E8" transform="translate(100.87760925292969,3.759490966796875)"/>
<path d="M0 0 C0.66 0.66 1.32 1.32 2 2 C1.34 2 0.68 2 0 2 C-0.33 2.66 -0.66 3.32 -1 4 C-2.64646685 5.68662458 -4.31183067 7.35511706 -6 9 C-6 8.34 -6 7.68 -6 7 C-6.66 7 -7.32 7 -8 7 C-8.33 8.32 -8.66 9.64 -9 11 C-10.32 11.33 -11.64 11.66 -13 12 C-13 12.33 -13 12.66 -13 13 C-15.31 13 -17.62 13 -20 13 C-20 13.66 -20 14.32 -20 15 C-23.96 15 -27.92 15 -32 15 C-32 15.66 -32 16.32 -32 17 C-128.03 17 -224.06 17 -323 17 C-323 16.34 -323 15.68 -323 15 C-323.84304688 15.02320313 -324.68609375 15.04640625 -325.5546875 15.0703125 C-327.19824219 15.09738281 -327.19824219 15.09738281 -328.875 15.125 C-329.96554687 15.14820313 -331.05609375 15.17140625 -332.1796875 15.1953125 C-335 15 -335 15 -337 13 C-339.58354218 12.83312552 -339.58354218 12.83312552 -342 13 C-338.87816044 11.16552622 -336.74803274 10.78267256 -333.1484375 10.953125 C-332.21386719 10.99566406 -331.27929688 11.03820312 -330.31640625 11.08203125 C-329.34574219 11.13746094 -328.37507813 11.19289063 -327.375 11.25 C-325.95380859 11.30994141 -325.95380859 11.30994141 -324.50390625 11.37109375 C-320.0376582 11.59715555 -315.84542484 12.02174381 -311.48165321 13.0056181 C-306.0127007 14.10793009 -300.76709777 14.28273094 -295.20223999 14.26069641 C-294.16115636 14.26452196 -293.12007274 14.26834751 -292.04744112 14.27228898 C-288.58284455 14.28255057 -285.11841583 14.2786397 -281.65380859 14.2746582 C-279.15928495 14.27900877 -276.66476264 14.28419307 -274.17024231 14.29014587 C-268.10890364 14.30213028 -262.0476301 14.30469039 -255.98628555 14.30234561 C-251.0491775 14.30055652 -246.11208281 14.30232475 -241.17497635 14.30657005 C-240.11750096 14.30746284 -240.11750096 14.30746284 -239.03866244 14.30837366 C-237.60594633 14.30958555 -236.17323022 14.31079969 -234.74051411 14.31201603 C-221.31662741 14.32288094 -207.89276586 14.32073554 -194.46887775 14.31463119 C-182.24132727 14.30947718 -170.01385682 14.32067913 -157.78632216 14.33972941 C-145.18850393 14.35920354 -132.59072335 14.36734625 -119.99289 14.36360615 C-112.93764022 14.36170671 -105.88245828 14.36405627 -98.82722092 14.37832069 C-92.17702959 14.39163109 -85.52702174 14.38884584 -78.87682152 14.37590981 C-76.45515702 14.37356872 -74.03348101 14.37618836 -71.61182976 14.38453293 C-37.92285152 15.90985208 -37.92285152 15.90985208 -7.796875 4.87109375 C-7.20390625 4.25363281 -6.6109375 3.63617188 -6 3 C-5.01 3 -4.02 3 -3 3 C-3 2.34 -3 1.68 -3 1 C-1.515 0.505 -1.515 0.505 0 0 Z " fill="#242424" transform="translate(415,477)"/>
<path d="M0 0 C0.66 0.33 1.32 0.66 2 1 C0.7260411 3.03833424 -0.61061923 5.03852126 -2 7 C-2.66 7 -3.32 7 -4 7 C-3.938125 7.721875 -3.87625 8.44375 -3.8125 9.1875 C-4 12 -4 12 -5.4387207 14.33081055 C-7.09822022 17.16791894 -7.64517456 19.29262918 -8.16796875 22.51953125 C-8.33876953 23.54111328 -8.50957031 24.56269531 -8.68554688 25.61523438 C-8.85119141 26.67033203 -9.01683594 27.72542969 -9.1875 28.8125 C-9.36474609 29.88693359 -9.54199219 30.96136719 -9.72460938 32.06835938 C-10.15915327 34.71085606 -10.58393549 37.3545417 -11 40 C-11.66 40 -12.32 40 -13 40 C-12.89540446 88.57944743 -12.78562997 137.15888077 -12.66888306 185.7383006 C-12.65511303 191.46998352 -12.641386 197.20166653 -12.62768555 202.93334961 C-12.62495724 204.0744529 -12.62222894 205.21555619 -12.61941796 206.39123837 C-12.57531006 224.88212061 -12.53468775 243.37300895 -12.49534739 261.86390188 C-12.45492092 280.8289335 -12.41076306 299.79395377 -12.36312145 318.75896865 C-12.33382833 330.46693315 -12.30746625 342.1748968 -12.28482103 353.88287608 C-12.26902634 361.90504494 -12.24961619 369.92719991 -12.22733159 377.94935336 C-12.21457106 382.58175661 -12.20343465 387.21414917 -12.19658089 391.84656525 C-12.19027504 396.08493118 -12.17944423 400.32326023 -12.1649667 404.56160591 C-12.16052815 406.0973469 -12.15777094 407.63309384 -12.15683801 409.16884097 C-12.15532987 411.25224516 -12.1477649 413.33554244 -12.1386652 415.41892529 C-12.13600716 416.57745201 -12.13334911 417.73597874 -12.13061053 418.92961234 C-12.01090203 421.7437154 -11.60122046 424.25688937 -11 427 C-10.93466565 428.93651019 -10.91415697 430.87502861 -10.9375 432.8125 C-10.94652344 433.78832031 -10.95554688 434.76414062 -10.96484375 435.76953125 C-10.97644531 436.50558594 -10.98804688 437.24164063 -11 438 C-10.34 438 -9.68 438 -9 438 C-8.75765625 439.05960937 -8.5153125 440.11921875 -8.265625 441.2109375 C-7.92794713 442.59916873 -7.58935782 443.98717848 -7.25 445.375 C-7.01410156 446.42300781 -7.01410156 446.42300781 -6.7734375 447.4921875 C-5.79613783 451.61583578 -5.79613783 451.61583578 -2.859375 454.4765625 C-1.93898438 454.73566406 -1.93898438 454.73566406 -1 455 C-1 455.66 -1 456.32 -1 457 C-0.34 457 0.32 457 1 457 C1.33 458.98 1.66 460.96 2 463 C1.01 463 0.02 463 -1 463 C-1.33 462.34 -1.66 461.68 -2 461 C-2.99 460.67 -3.98 460.34 -5 460 C-5.103125 459.21625 -5.20625 458.4325 -5.3125 457.625 C-5.77595022 454.66954819 -5.77595022 454.66954819 -9 453 C-9.625 450.625 -9.625 450.625 -10 448 C-10.50604744 445.78604245 -10.98256393 444.03487215 -12 442 C-12.33 442 -12.66 442 -13 442 C-12.98839844 441.25234375 -12.97679687 440.5046875 -12.96484375 439.734375 C-12.95130859 438.25710938 -12.95130859 438.25710938 -12.9375 436.75 C-12.92009766 435.28820312 -12.92009766 435.28820312 -12.90234375 433.796875 C-12.88382539 431.14365641 -12.88382539 431.14365641 -13.49823844 429.23673385 C-14.16570805 426.26131285 -14.12542274 423.46547823 -14.12584114 420.41538334 C-14.12729458 419.75211183 -14.12874802 419.08884033 -14.13024551 418.40546969 C-14.1339076 416.17320874 -14.13041809 413.94101599 -14.12698364 411.70875549 C-14.12813538 410.09606943 -14.12972326 408.48338364 -14.13171089 406.87069839 C-14.13589703 402.43136641 -14.13381671 397.99205584 -14.13072467 393.55272377 C-14.12846788 388.76805783 -14.13195159 383.98339566 -14.13470459 379.19873047 C-14.13915837 369.82220384 -14.13818752 360.44568521 -14.13529195 351.06915826 C-14.13303625 343.45011116 -14.13272612 335.83106631 -14.13381577 328.21201897 C-14.133969 327.1288383 -14.13412223 326.04565763 -14.13428011 324.9296533 C-14.13459982 322.72938109 -14.13492404 320.52910888 -14.1352527 318.32883667 C-14.13810638 297.68158317 -14.13482229 277.0343341 -14.12945233 256.38708132 C-14.12498503 238.66161644 -14.12575984 220.93615812 -14.13037109 203.21069336 C-14.13571991 182.64034334 -14.13783103 162.06999722 -14.13475883 141.4996466 C-14.13444027 139.30703 -14.1341259 137.1144134 -14.13381577 134.9217968 C-14.13366149 133.8429132 -14.13350721 132.76402959 -14.13334826 131.65245255 C-14.13248399 124.04096577 -14.13394408 116.42948146 -14.13629532 108.81799507 C-14.13909695 99.54434881 -14.13834737 90.27071102 -14.13301457 80.99706573 C-14.1303824 76.2633659 -14.12936436 71.52968019 -14.13266373 66.79598045 C-14.13563661 62.46526211 -14.1340172 58.13457103 -14.12868617 53.80385517 C-14.12756624 52.23458284 -14.12814384 50.66530821 -14.13056196 49.09603734 C-14.13359109 46.96747781 -14.13049529 44.83901237 -14.12584114 42.7104578 C-14.12567879 41.5267595 -14.12551644 40.3430612 -14.12534916 39.12349325 C-14.01151155 36.28684864 -13.61601111 33.76226757 -13 31 C-12.93628632 29.39696373 -12.91355786 27.79162328 -12.9375 26.1875 C-12.94652344 25.39730469 -12.95554688 24.60710938 -12.96484375 23.79296875 C-12.97644531 23.20128906 -12.98804688 22.60960938 -13 22 C-12.34 21.67 -11.68 21.34 -11 21 C-11.061875 20.05125 -11.12375 19.1025 -11.1875 18.125 C-11.125625 17.09375 -11.06375 16.0625 -11 15 C-10.01 14.34 -9.02 13.68 -8 13 C-6.91891713 10.9545557 -6.91891713 10.9545557 -6.0625 8.625 C-4.55115312 5.00126868 -3.08989218 2.53812572 0 0 Z " fill="#5D5D5D" transform="translate(59,17)"/>
<path d="M0 0 C0.81110664 -0.00170885 1.62221328 -0.0034177 2.45789891 -0.00517833 C5.18493759 -0.00848143 7.91173204 0.00254391 10.63874817 0.01345825 C12.58990473 0.01402219 14.54106171 0.01370615 16.49221802 0.01257324 C21.79769326 0.01199804 27.10307857 0.02377936 32.40853286 0.03772116 C37.94989173 0.05020072 43.49125253 0.05139682 49.03262329 0.05377197 C59.52983603 0.05999491 70.02700725 0.07641673 80.52420169 0.09647095 C92.47325214 0.11880465 104.42230455 0.12981701 116.37137067 0.13986182 C140.95506708 0.16078226 165.53872659 0.19597403 190.12239075 0.24050903 C190.12239075 0.90050903 190.12239075 1.56050903 190.12239075 2.24050903 C191.11239075 2.57050903 192.10239075 2.90050903 193.12239075 3.24050903 C194.14343626 4.21901098 195.14300284 5.2203133 196.12239075 6.24050903 C197.11239075 6.90050903 198.10239075 7.56050903 199.12239075 8.24050903 C199.12239075 9.23050903 199.12239075 10.22050903 199.12239075 11.24050903 C199.78239075 11.24050903 200.44239075 11.24050903 201.12239075 11.24050903 C201.12239075 11.90050903 201.12239075 12.56050903 201.12239075 13.24050903 C202.11239075 13.57050903 203.10239075 13.90050903 204.12239075 14.24050903 C205.27868767 15.39680595 206.42845196 16.55987725 207.55989075 17.74050903 C209.25552521 19.45642529 209.25552521 19.45642529 212.12239075 21.24050903 C212.12239075 22.23050903 212.12239075 23.22050903 212.12239075 24.24050903 C212.78239075 24.24050903 213.44239075 24.24050903 214.12239075 24.24050903 C214.12239075 24.90050903 214.12239075 25.56050903 214.12239075 26.24050903 C210.75636473 24.79364262 208.68424507 22.96073828 206.18489075 20.30300903 C203.31300005 17.34633928 200.67175753 15.33372534 197.12239075 13.24050903 C190.71258683 7.42090119 190.71258683 7.42090119 189.12239075 4.24050903 C184.56205338 3.14885533 180.03002621 3.09873809 175.36650085 3.11352539 C174.60465583 3.1119654 173.8428108 3.11040541 173.05787957 3.10879815 C170.51539854 3.10482237 167.97297765 3.10796448 165.43049622 3.1111145 C163.60361191 3.10975897 161.77672788 3.10797818 159.94984436 3.10580444 C154.99553681 3.10124889 150.04125011 3.1030118 145.0869422 3.10618353 C139.90247892 3.10871604 134.71801742 3.10636717 129.53355408 3.10479736 C120.82960184 3.10297861 112.1256581 3.10537463 103.42170715 3.11013794 C93.35489881 3.11558341 83.28811072 3.11381465 73.22130287 3.10831153 C64.57915094 3.10377613 55.93700511 3.10313185 47.29485238 3.1057502 C42.13268522 3.10731018 36.9705276 3.10751429 31.80836105 3.10421371 C26.95747426 3.10132871 22.10661363 3.10332234 17.25572968 3.10910797 C15.47391681 3.11043203 13.69210176 3.11004744 11.91028976 3.10784531 C9.48160107 3.10512003 7.05299665 3.10853185 4.62431335 3.11352539 C3.91634106 3.11129467 3.20836876 3.10906395 2.47894275 3.10676563 C-0.80616144 3.11990123 -3.7243153 3.31658565 -6.87760925 4.24050903 C-8.91691877 4.35680918 -10.96002471 4.41546245 -13.00260925 4.42800903 C-14.05706238 4.44218872 -15.1115155 4.45636841 -16.19792175 4.47097778 C-18.87760925 4.24050903 -18.87760925 4.24050903 -20.87760925 2.24050903 C-20.19053894 2.26371216 -19.50346863 2.28691528 -18.795578 2.31082153 C-17.89452332 2.32886841 -16.99346863 2.34691528 -16.06510925 2.36550903 C-15.17178894 2.38871216 -14.27846863 2.41191528 -13.358078 2.43582153 C-8.69830995 2.06891066 -5.12566071 -0.03920399 0 0 Z " fill="#2C2C2C" transform="translate(100.87760925292969,3.759490966796875)"/>
<path d="M0 0 C4.6875 3.22265625 4.6875 3.22265625 6 5 C6.05299153 7.33273152 6.05646354 9.66734994 6 12 C-5.64038994 12.04652464 -17.28075743 12.08197091 -28.92122173 12.10362434 C-34.32747898 12.11402159 -39.73367218 12.12810594 -45.13989258 12.15087891 C-50.36594578 12.17275293 -55.59193773 12.18459908 -60.81803322 12.18975449 C-62.80292537 12.19342427 -64.78781451 12.20058975 -66.77268028 12.21146011 C-79.85598963 12.28020431 -92.42658636 12.09366956 -105 8 C-105 7.67 -105 7.34 -105 7 C-98.84765625 6.90234375 -98.84765625 6.90234375 -97 7 C-96.67 7.33 -96.34 7.66 -96 8 C-89.61359844 8.91234308 -83.44685304 9.09080075 -77 9 C-81.95 8.01 -86.9 7.02 -92 6 C-92 5.67 -92 5.34 -92 5 C-88.17002963 4.93280754 -84.65393278 4.89719702 -80.86228943 5.49327087 C-76.81463869 6.02431925 -72.8435446 6.17330225 -68.76977539 6.20532227 C-67.97871399 6.21522186 -67.18765259 6.22512146 -66.37261963 6.23532104 C-63.78099468 6.26668447 -61.18935147 6.29159299 -58.59765625 6.31640625 C-56.79161629 6.33699756 -54.98558091 6.35799458 -53.17955017 6.37937927 C-48.44334645 6.43437526 -43.70710087 6.48388295 -38.9708252 6.53222656 C-34.13090319 6.58260644 -29.29104142 6.63820616 -24.45117188 6.69335938 C-14.96749946 6.80066576 -5.48377458 6.90217099 4 7 C3.34 6.21625 2.68 5.4325 2 4.625 C0 2 0 2 0 0 Z " fill="#CFCFCF" transform="translate(421,138)"/>
<path d="M0 0 C0.33 0 0.66 0 1 0 C1.00173625 0.78198698 1.0034725 1.56397396 1.00526136 2.36965752 C1.10826834 48.70681883 1.21637624 95.04396582 1.33111694 141.38109964 C1.34488667 146.94368222 1.35861375 152.50626491 1.37231445 158.06884766 C1.37504276 159.17626725 1.37777106 160.28368685 1.38058204 161.42466462 C1.4246684 179.36063202 1.46529816 197.29660567 1.50465261 215.232584 C1.54510464 233.63375413 1.58926634 252.03491266 1.63687855 270.43606567 C1.66614546 281.79239797 1.69251178 293.14872941 1.71517897 304.50507683 C1.73099547 312.29038838 1.75041224 320.07568574 1.77266841 327.86098152 C1.78540627 332.35401304 1.79654881 336.84703371 1.80341911 341.34007835 C1.80974569 345.45462332 1.82059979 349.56913074 1.8350333 353.68365502 C1.83945547 355.17099741 1.8422255 356.65834583 1.84316199 358.14569449 C1.84844288 365.18682864 1.92643652 372.03584276 3 379 C3.07039414 380.6446494 3.10908761 382.29138447 3.09765625 383.9375 C3.09443359 384.76894531 3.09121094 385.60039062 3.08789062 386.45703125 C3.07951172 387.29621094 3.07113281 388.13539063 3.0625 389 C3.05798828 389.87011719 3.05347656 390.74023438 3.04882812 391.63671875 C3.0371736 393.75784293 3.01924357 395.8789311 3 398 C2.67 398 2.34 398 2 398 C0.40489789 387.13467703 -0.28627825 376.55654274 -0.24050903 365.57373047 C-0.24138369 363.98424715 -0.24313943 362.39476411 -0.24568737 360.80528259 C-0.25011387 356.48599308 -0.24222278 352.16680464 -0.23213124 347.84752798 C-0.22343046 343.17155582 -0.22642156 338.49558858 -0.22793579 333.8196106 C-0.22898048 325.73421904 -0.22274758 317.64885995 -0.21146011 309.56347656 C-0.19515138 297.87361838 -0.18999163 286.18377578 -0.18748413 274.49390745 C-0.18311543 255.52424973 -0.16982879 236.55460929 -0.15087891 217.58496094 C-0.1324987 199.16634202 -0.11835269 180.74772781 -0.10986328 162.32910156 C-0.10933783 161.19227283 -0.10881239 160.05544409 -0.10827102 158.884166 C-0.10566079 153.18058096 -0.10313341 147.47699589 -0.10064721 141.7734108 C-0.07994042 94.51559526 -0.04473745 47.25779848 0 0 Z " fill="#B8B8B8" transform="translate(46,57)"/>
<path d="M0 0 C1.8125 0.5625 1.8125 0.5625 4 2 C4.45375 3.134375 4.9075 4.26875 5.375 5.4375 C7.33321038 9.73049967 8.73974491 10.26112037 13 12 C15.375 13.5625 15.375 13.5625 17 15 C17 15.66 17 16.32 17 17 C17.99 17 18.98 17 20 17 C20 17.66 20 18.32 20 19 C21.65 19 23.3 19 25 19 C25.33 19.99 25.66 20.98 26 22 C27.98 22 29.96 22 32 22 C32 22.66 32 23.32 32 24 C33.12535156 24.07347656 33.12535156 24.07347656 34.2734375 24.1484375 C40.98603585 24.63877844 47.43761499 25.50458926 54 27 C52 29 52 29 49.93359375 29.23046875 C33.95541401 28.95541401 33.95541401 28.95541401 32 27 C30.25093341 26.80398392 28.50068154 26.61852597 26.75 26.4375 C17.4287667 24.92474615 8.85194088 20.23282269 3.25 12.5 C0.83660389 8.34520131 0.17348749 4.77090611 0 0 Z " fill="#C5C4C4" transform="translate(292,119)"/>
<path d="M0 0 C0.33 1.32 0.66 2.64 1 4 C0.34 4 -0.32 4 -1 4 C-1.144375 4.7425 -1.28875 5.485 -1.4375 6.25 C-1.90187492 8.52027739 -2.41863569 10.75759479 -3 13 C-3.66 13 -4.32 13 -5 13 C-4.98839844 13.63808594 -4.97679687 14.27617188 -4.96484375 14.93359375 C-4.95582031 15.75988281 -4.94679688 16.58617188 -4.9375 17.4375 C-4.92589844 18.26121094 -4.91429687 19.08492187 -4.90234375 19.93359375 C-5 22 -5 22 -6 23 C-6.14452718 24.47507118 -6.22694925 25.9563604 -6.28125 27.4375 C-6.31863281 28.33210938 -6.35601562 29.22671875 -6.39453125 30.1484375 C-6.42933594 31.08945312 -6.46414062 32.03046875 -6.5 33 C-6.56858488 34.85433195 -6.64127813 36.70851808 -6.71875 38.5625 C-6.74904297 39.38878906 -6.77933594 40.21507812 -6.81054688 41.06640625 C-7 43 -7 43 -8 44 C-8.11001288 46.36505855 -8.15495482 48.70154952 -8.15821838 51.06764221 C-8.16315636 51.81578672 -8.16809434 52.56393123 -8.17318195 53.33474678 C-8.18863247 55.86061333 -8.19693788 58.38645433 -8.20532227 60.91235352 C-8.21489487 62.71543607 -8.22490457 64.51851636 -8.23532104 66.32159424 C-8.2624432 71.23252094 -8.28341305 76.14345732 -8.30332303 81.05441785 C-8.32513766 86.18074146 -8.3525484 91.30703498 -8.37937927 96.43333435 C-8.42936753 106.14788444 -8.47428352 115.86245119 -8.51740164 125.57703394 C-8.56672172 136.63369854 -8.62165918 147.69033295 -8.67708123 158.74696839 C-8.79099538 181.49795079 -8.89781377 204.24896212 -9 227 C-9.33 227 -9.66 227 -10 227 C-10.09381111 202.36357394 -10.16415829 177.72717499 -10.20724869 153.09060574 C-10.22779602 141.64912857 -10.2557653 130.20776295 -10.30175781 118.76635742 C-10.34186701 108.7836917 -10.36748956 98.80110685 -10.37635398 88.81836277 C-10.38152831 83.54194271 -10.39352276 78.26575381 -10.42292023 72.98940849 C-10.7140816 18.56384812 -10.7140816 18.56384812 -3 7 C-2.29329272 4.30745009 -2.29329272 4.30745009 -2 2 C-1.34 2 -0.68 2 0 2 C0 1.34 0 0.68 0 0 Z " fill="#EBEBEB" transform="translate(57,22)"/>
<path d="M0 0 C1.14443766 -0.00128164 1.14443766 -0.00128164 2.31199527 -0.00258917 C4.87002834 -0.00423705 7.42799592 0.00126612 9.98602295 0.00672913 C11.81910195 0.00701117 13.65218107 0.00685292 15.48526001 0.00628662 C20.46421307 0.00599933 25.44314211 0.01188509 30.42208958 0.01886058 C35.62445009 0.02510542 40.82681113 0.02569881 46.0291748 0.02688599 C55.88176902 0.02999596 65.73435215 0.03820486 75.58694148 0.04823548 C86.80326432 0.05940696 98.01958769 0.06490968 109.23591471 0.06993091 C132.30985016 0.08038774 155.38377578 0.09798074 178.45770264 0.12025452 C178.45770264 0.45025452 178.45770264 0.78025452 178.45770264 1.12025452 C177.52341053 1.12448646 176.58911842 1.1287184 175.62651443 1.13307858 C152.90944429 1.23620097 130.19240634 1.34494026 107.47539139 1.45959377 C96.48968828 1.51490848 85.50398193 1.56838763 74.51824951 1.61756897 C64.94483102 1.66043224 55.37143626 1.70671569 45.79805446 1.75713307 C40.72747085 1.78371669 35.6568919 1.80856939 30.58628082 1.82932854 C25.81589075 1.84891256 21.04554581 1.87306171 16.27519608 1.90074539 C14.52242222 1.91010645 12.76963847 1.91778513 11.01684952 1.92367363 C8.62723162 1.93195084 6.23772276 1.94623209 3.84814453 1.96203613 C3.15164331 1.96301424 2.45514208 1.96399235 1.73753476 1.96500009 C-1.51887472 1.99277056 -4.41568068 2.21052051 -7.54229736 3.12025452 C-9.7282001 3.27062235 -11.91613743 3.39254645 -14.10479736 3.49525452 C-21.2081467 3.9618979 -28.26489695 4.93454991 -34.67510986 8.21009827 C-37.0522811 9.36884492 -38.93297636 9.26521679 -41.54229736 9.12025452 C-41.54229736 9.78025452 -41.54229736 10.44025452 -41.54229736 11.12025452 C-42.53229736 11.12025452 -43.52229736 11.12025452 -44.54229736 11.12025452 C-43.10240793 8.24047564 -41.04095499 7.57317326 -38.22979736 6.05775452 C-37.26428955 5.53052795 -36.29878174 5.00330139 -35.30401611 4.46009827 C-29.66250501 1.72312754 -23.90213524 1.79719106 -17.74151611 1.51478577 C-13.70916843 1.36973279 -13.70916843 1.36973279 -9.76564407 0.6101923 C-6.52346141 -0.10425668 -3.30288257 -0.01351109 0 0 Z " fill="#B4B4B4" transform="translate(105.54229736328125,5.8797454833984375)"/>
<path d="M0 0 C1.9375 0.375 1.9375 0.375 4 1 C4.33 1.66 4.66 2.32 5 3 C4.01 3 3.02 3 2 3 C2 28.08 2 53.16 2 79 C2.66 79 3.32 79 4 79 C4.33 86.26 4.66 93.52 5 101 C2.88660669 97.82991003 2.68986736 96.55848959 2.4375 92.875 C2.45515121 89.63079025 2.45515121 89.63079025 1 87 C0.74165623 84.7120417 0.56692424 82.46138378 0.44140625 80.1640625 C0.39915421 79.39075592 0.35690216 78.61744934 0.31336975 77.82070923 C-0.33736447 63.82465126 -0.108474 49.78580663 -0.06866455 35.77825928 C-0.05829325 31.73499072 -0.05383783 27.69171563 -0.04882812 23.6484375 C-0.03821763 15.76560742 -0.0212315 7.88280861 0 0 Z " fill="#E6E5E4" transform="translate(288,9)"/>
<path d="M0 0 C1.258125 -0.020625 2.51625 -0.04125 3.8125 -0.0625 C4.52019531 -0.07410156 5.22789062 -0.08570313 5.95703125 -0.09765625 C8 0 8 0 11 1 C13.83636639 1.20421838 16.6602846 1.37199947 19.5 1.5 C27.59459459 1.86486486 27.59459459 1.86486486 31 3 C33.37587576 3.11857936 35.75487984 3.1770529 38.13354492 3.20532227 C38.85574722 3.21522186 39.57794952 3.22512146 40.32203674 3.23532104 C42.70814745 3.26689759 45.09427806 3.29167822 47.48046875 3.31640625 C49.13528459 3.3369791 50.79009521 3.35797566 52.44490051 3.37937927 C56.79975153 3.43456575 61.15464971 3.48399013 65.50958252 3.53222656 C69.95369665 3.58246658 74.39774232 3.63813959 78.84179688 3.69335938 C87.56114003 3.80089908 96.28054047 3.90235335 105 4 C105.33 3.34 105.66 2.68 106 2 C106.495 3.485 106.495 3.485 107 5 C96.78434583 5.04675575 86.56871794 5.08208539 76.35297775 5.10362434 C71.60718705 5.11397241 66.86147063 5.12796306 62.11572266 5.15087891 C57.51857037 5.17293318 52.9214886 5.18463568 48.32428741 5.18975449 C46.58800398 5.19339279 44.8517235 5.20049301 43.11547089 5.21146011 C30.62143827 5.28709428 18.40950893 4.45081593 6 3 C6 2.34 6 1.68 6 1 C4.02 1 2.04 1 0 1 C0 0.67 0 0.34 0 0 Z " fill="#EDEBEA" transform="translate(318,140)"/>
<path d="M0 0 C0.66 0.66 1.32 1.32 2 2 C1.34 2 0.68 2 0 2 C-0.33 2.66 -0.66 3.32 -1 4 C-2.64646685 5.68662458 -4.31183067 7.35511706 -6 9 C-6 8.34 -6 7.68 -6 7 C-6.66 7 -7.32 7 -8 7 C-8.33 8.32 -8.66 9.64 -9 11 C-10.32 11.33 -11.64 11.66 -13 12 C-13 12.33 -13 12.66 -13 13 C-15.31 13 -17.62 13 -20 13 C-20 13.66 -20 14.32 -20 15 C-29.57 15 -39.14 15 -49 15 C-49 14.67 -49 14.34 -49 14 C-48.351521 13.93006836 -47.70304199 13.86013672 -47.03491211 13.78808594 C-24.82652109 12.61963278 -24.82652109 12.61963278 -6 3 C-5.01 3 -4.02 3 -3 3 C-3 2.34 -3 1.68 -3 1 C-2.01 0.67 -1.02 0.34 0 0 Z " fill="#6B6B6B" transform="translate(415,477)"/>
<path d="M0 0 C1.8125 0.5625 1.8125 0.5625 4 2 C4.474375 3.11375 4.94875 4.2275 5.4375 5.375 C7.14365568 9.33328119 8.54824405 10.55851408 12 13 C12.66 13.680625 13.32 14.36125 14 15.0625 C15.98281745 17.13432213 15.98281745 17.13432213 18.75 18.625 C19.4925 19.07875 20.235 19.5325 21 20 C21 20.66 21 21.32 21 22 C14.13879626 21.75495701 9.76520787 20.05985825 5 15 C1.7804683 10.12003185 -0.33799102 5.92540514 0 0 Z " fill="#BFBFBF" transform="translate(292,119)"/>
<path d="M0 0 C6.15234375 -0.09765625 6.15234375 -0.09765625 8 0 C8.33 0.33 8.66 0.66 9 1 C20.99540182 3.16154941 33.00711031 3.33639812 45.15625 3.4140625 C47.03911133 3.43282476 48.92196469 3.4524017 50.80480957 3.4727478 C55.70362602 3.52354171 60.60246958 3.56344562 65.50140381 3.60089111 C70.5231365 3.64126613 75.54476163 3.6922036 80.56640625 3.7421875 C90.37752803 3.83832015 100.1887113 3.92292035 110 4 C110 4.33 110 4.66 110 5 C98.48999407 5.04652809 86.98001085 5.08197264 75.4699297 5.10362434 C70.12420622 5.11402085 64.77854753 5.1281038 59.43286133 5.15087891 C54.26516275 5.17275562 49.09752612 5.18459964 43.92978477 5.18975449 C41.96722121 5.1934238 40.00466068 5.20058831 38.04212379 5.21146011 C25.02165076 5.28066056 12.51268367 5.07389701 0 1 C0 0.67 0 0.34 0 0 Z " fill="#E1E1E1" transform="translate(316,145)"/>
<path d="M0 0 C1.60488281 0.00483398 1.60488281 0.00483398 3.2421875 0.00976562 C4.35335937 0.01814453 5.46453125 0.02652344 6.609375 0.03515625 C8.29933594 0.04192383 8.29933594 0.04192383 10.0234375 0.04882812 C12.80213717 0.06060228 15.58072909 0.07704785 18.359375 0.09765625 C18.359375 0.42765625 18.359375 0.75765625 18.359375 1.09765625 C17.48200684 1.13524048 17.48200684 1.13524048 16.58691406 1.17358398 C13.92753029 1.28988587 11.26847097 1.41245692 8.609375 1.53515625 C7.22878906 1.59413086 7.22878906 1.59413086 5.8203125 1.65429688 C4.93085937 1.69619141 4.04140625 1.73808594 3.125 1.78125 C2.30805664 1.81790771 1.49111328 1.85456543 0.64941406 1.89233398 C-1.54937512 2.08947489 -3.50962063 2.54244678 -5.640625 3.09765625 C-7.82652773 3.24802408 -10.01446507 3.36994819 -12.203125 3.47265625 C-19.30647434 3.93929964 -26.36322458 4.91195164 -32.7734375 8.1875 C-35.15060874 9.34624665 -37.031304 9.24261853 -39.640625 9.09765625 C-39.640625 9.75765625 -39.640625 10.41765625 -39.640625 11.09765625 C-40.630625 11.09765625 -41.620625 11.09765625 -42.640625 11.09765625 C-41.20073556 8.21787738 -39.13928262 7.550575 -36.328125 6.03515625 C-35.36261719 5.50792969 -34.39710937 4.98070312 -33.40234375 4.4375 C-27.76083265 1.70052927 -22.00046288 1.77459279 -15.83984375 1.4921875 C-11.7521478 1.32931977 -11.7521478 1.32931977 -7.74511719 0.58618164 C-5.11601606 -0.02412362 -2.6984951 -0.0143537 0 0 Z " fill="#AAAAAA" transform="translate(103.640625,5.90234375)"/>
<path d="M0 0 C0.33 0 0.66 0 1 0 C1.25234872 14.13735155 0.79518667 27.94812406 -0.82421875 41.99707031 C-1.05731657 44.15723138 -1.05731657 44.15723138 -0.875 46.9609375 C-0.91625 47.63382812 -0.9575 48.30671875 -1 49 C-1.99 49.66 -2.98 50.32 -4 51 C-4.73080266 52.97746603 -5.39421747 54.98072489 -6 57 C-6.63815344 58.34721283 -7.29325371 59.68747118 -8 61 C-8.99 60.67 -9.98 60.34 -11 60 C-10.1028125 58.63875 -10.1028125 58.63875 -9.1875 57.25 C-6.66860393 52.9089238 -5.69385036 48.34214184 -4.61328125 43.4765625 C-4 41 -4 41 -3 40 C-2.85572127 38.62154321 -2.7731173 37.2364826 -2.71875 35.8515625 C-2.68136719 35.01109375 -2.64398438 34.170625 -2.60546875 33.3046875 C-2.57066406 32.42039062 -2.53585937 31.53609375 -2.5 30.625 C-2.43102532 28.88785983 -2.35826417 27.15086482 -2.28125 25.4140625 C-2.23581055 24.25318115 -2.23581055 24.25318115 -2.18945312 23.06884766 C-2 21 -2 21 -1 18 C-0.85507877 16.59335074 -0.75371069 15.1818867 -0.68359375 13.76953125 C-0.64169922 12.96708984 -0.59980469 12.16464844 -0.55664062 11.33789062 C-0.51732422 10.50451172 -0.47800781 9.67113281 -0.4375 8.8125 C-0.39431641 7.96751953 -0.35113281 7.12253906 -0.30664062 6.25195312 C-0.20068482 4.16815567 -0.0998498 2.08409897 0 0 Z " fill="#A3A3A3" transform="translate(427,416)"/>
<path d="M0 0 C0.66 0.33 1.32 0.66 2 1 C0.7260411 3.03833424 -0.61061923 5.03852126 -2 7 C-2.66 7 -3.32 7 -4 7 C-3.938125 7.721875 -3.87625 8.44375 -3.8125 9.1875 C-4 12 -4 12 -5.4387207 14.33081055 C-7.09822022 17.16791894 -7.64517456 19.29262918 -8.16796875 22.51953125 C-8.33876953 23.54111328 -8.50957031 24.56269531 -8.68554688 25.61523438 C-8.85119141 26.67033203 -9.01683594 27.72542969 -9.1875 28.8125 C-9.36474609 29.88693359 -9.54199219 30.96136719 -9.72460938 32.06835938 C-10.15915327 34.71085606 -10.58393549 37.3545417 -11 40 C-11.33 40 -11.66 40 -12 40 C-12.77040851 33.93303301 -13.09706112 28.11485027 -13 22 C-12.34 21.67 -11.68 21.34 -11 21 C-11.061875 20.05125 -11.12375 19.1025 -11.1875 18.125 C-11.125625 17.09375 -11.06375 16.0625 -11 15 C-10.01 14.34 -9.02 13.68 -8 13 C-6.91891713 10.9545557 -6.91891713 10.9545557 -6.0625 8.625 C-4.55115312 5.00126868 -3.08989218 2.53812572 0 0 Z " fill="#808080" transform="translate(59,17)"/>
<path d="M0 0 C3.3 0 6.6 0 10 0 C10.66 1.32 11.32 2.64 12 4 C12.66 4 13.32 4 14 4 C16 6 16 6 16 9 C16.66 9 17.32 9 18 9 C18 9.66 18 10.32 18 11 C18.99 11.33 19.98 11.66 21 12 C22.15629692 13.15629692 23.30606121 14.31936822 24.4375 15.5 C26.13313447 17.21591626 26.13313447 17.21591626 29 19 C29 19.99 29 20.98 29 22 C29.66 22 30.32 22 31 22 C31 22.66 31 23.32 31 24 C27.63397398 22.55313358 25.56185432 20.72022925 23.0625 18.0625 C20.1906093 15.10583024 17.54936679 13.09321631 14 11 C7.59019608 5.18039216 7.59019608 5.18039216 6 2 C2.97065509 1.34227572 2.97065509 1.34227572 0 1 C0 0.67 0 0.34 0 0 Z " fill="#666665" transform="translate(284,6)"/>
<path d="M0 0 C0.33 1.32 0.66 2.64 1 4 C0.34 4 -0.32 4 -1 4 C-1.144375 4.7425 -1.28875 5.485 -1.4375 6.25 C-1.90187492 8.52027739 -2.41863569 10.75759479 -3 13 C-3.66 13 -4.32 13 -5 13 C-4.98839844 13.63808594 -4.97679687 14.27617188 -4.96484375 14.93359375 C-4.95582031 15.75988281 -4.94679688 16.58617188 -4.9375 17.4375 C-4.92589844 18.26121094 -4.91429687 19.08492187 -4.90234375 19.93359375 C-5 22 -5 22 -6 23 C-6.14452718 24.47507118 -6.22694925 25.9563604 -6.28125 27.4375 C-6.31863281 28.33210938 -6.35601562 29.22671875 -6.39453125 30.1484375 C-6.42933594 31.08945312 -6.46414062 32.03046875 -6.5 33 C-6.56858488 34.85433195 -6.64127813 36.70851808 -6.71875 38.5625 C-6.74904297 39.38878906 -6.77933594 40.21507812 -6.81054688 41.06640625 C-7 43 -7 43 -8 44 C-8.36760731 46.32817964 -8.70241581 48.6618385 -9 51 C-9.33 51 -9.66 51 -10 51 C-10.50336403 41.36617184 -9.81786564 32.31819466 -8.1875 22.8125 C-7.9395166 21.32544556 -7.9395166 21.32544556 -7.68652344 19.80834961 C-6.79798935 14.92266714 -5.90344579 11.12934513 -3 7 C-2.29329272 4.30745009 -2.29329272 4.30745009 -2 2 C-1.34 2 -0.68 2 0 2 C0 1.34 0 0.68 0 0 Z " fill="#D7D7D7" transform="translate(57,22)"/>
<path d="M0 0 C0.33 0 0.66 0 1 0 C1.01981934 0.95438965 1.03963867 1.9087793 1.06005859 2.89208984 C1.48284289 22.65667053 2.18040791 42.30496833 4 62 C3.34 62 2.68 62 2 62 C1.93941406 61.15695313 1.87882812 60.31390625 1.81640625 59.4453125 C1.73261719 58.34960938 1.64882813 57.25390625 1.5625 56.125 C1.48128906 55.03445312 1.40007812 53.94390625 1.31640625 52.8203125 C1.16998297 50.05271029 1.16998297 50.05271029 0 48 C-0.08991092 46.45772144 -0.11756961 44.91159105 -0.11352539 43.36669922 C-0.11344986 42.40585419 -0.11337433 41.44500916 -0.11329651 40.45504761 C-0.10813522 39.41542877 -0.10297394 38.37580994 -0.09765625 37.3046875 C-0.0962413 36.24210724 -0.09482635 35.17952698 -0.09336853 34.08474731 C-0.08775834 30.68146991 -0.07520409 27.27825762 -0.0625 23.875 C-0.05748631 21.57161553 -0.05292318 19.26823003 -0.04882812 16.96484375 C-0.0377856 11.30987351 -0.02103752 5.65494141 0 0 Z " fill="#DADADA" transform="translate(284,49)"/>
<path d="M0 0 C0.93457031 0.04253906 1.86914062 0.08507812 2.83203125 0.12890625 C3.80269531 0.18433594 4.77335937 0.23976563 5.7734375 0.296875 C7.19462891 0.35681641 7.19462891 0.35681641 8.64453125 0.41796875 C14.96495324 0.73788067 20.98265876 1.62879642 27.1484375 3.046875 C27.1484375 3.376875 27.1484375 3.706875 27.1484375 4.046875 C23.05505098 4.09626615 18.96177952 4.13259001 14.86816406 4.15673828 C13.47522969 4.16680377 12.08231648 4.18045734 10.68945312 4.19775391 C8.6888939 4.2219772 6.68818135 4.23228314 4.6875 4.2421875 C3.48303223 4.25266113 2.27856445 4.26313477 1.03759766 4.27392578 C-1.8515625 4.046875 -1.8515625 4.046875 -3.8515625 2.046875 C-6.43510468 1.88000052 -6.43510468 1.88000052 -8.8515625 2.046875 C-5.72972294 0.21240122 -3.59959524 -0.17045244 0 0 Z " fill="#646464" transform="translate(81.8515625,487.953125)"/>
<path d="M0 0 C2.39450573 2.39450573 2.45428455 3.59096236 3 6.875 C3.56364153 10.24678417 4.12792119 13.10087795 6 16 C6.99 16.33 7.98 16.66 9 17 C9 17.66 9 18.32 9 19 C9.66 19 10.32 19 11 19 C11.33 20.98 11.66 22.96 12 25 C11.01 25 10.02 25 9 25 C8.67 24.34 8.34 23.68 8 23 C7.01 22.67 6.02 22.34 5 22 C4.896875 21.21625 4.79375 20.4325 4.6875 19.625 C4.22404978 16.66954819 4.22404978 16.66954819 1 15 C0.375 12.625 0.375 12.625 0 10 C-0.20625 9.360625 -0.4125 8.72125 -0.625 8.0625 C-1.14135175 5.22256539 -0.57352767 2.80391303 0 0 Z " fill="#545454" transform="translate(49,455)"/>
<path d="M0 0 C0.33 0 0.66 0 1 0 C1 3.3 1 6.6 1 10 C1.66 10 2.32 10 3 10 C3.33 17.26 3.66 24.52 4 32 C1.88660669 28.82991003 1.68986736 27.55848959 1.4375 23.875 C1.45515121 20.63079025 1.45515121 20.63079025 0 18 C-0.08631874 16.65732587 -0.10706473 15.31025678 -0.09765625 13.96484375 C-0.09443359 13.15595703 -0.09121094 12.34707031 -0.08789062 11.51367188 C-0.07951172 10.66353516 -0.07113281 9.81339844 -0.0625 8.9375 C-0.05798828 8.08349609 -0.05347656 7.22949219 -0.04882812 6.34960938 C-0.03700373 4.23304337 -0.01906769 2.11651315 0 0 Z " fill="#E6E5E3" transform="translate(289,78)"/>
<path d="M0 0 C0.66 0 1.32 0 2 0 C2.08096803 1.45742463 2.13917774 2.91612807 2.1875 4.375 C2.22230469 5.18710937 2.25710938 5.99921875 2.29296875 6.8359375 C2.19628906 7.55007813 2.09960938 8.26421875 2 9 C1.01 9.66 0.02 10.32 -1 11 C-1.73080266 12.97746603 -2.39421747 14.98072489 -3 17 C-3.63815344 18.34721283 -4.29325371 19.68747118 -5 21 C-5.99 20.67 -6.98 20.34 -8 20 C-7.401875 19.0925 -6.80375 18.185 -6.1875 17.25 C-3.66860393 12.9089238 -2.69385036 8.34214184 -1.61328125 3.4765625 C-1 1 -1 1 0 0 Z " fill="#616161" transform="translate(424,456)"/>
<path d="M0 0 C2.97 0 5.94 0 9 0 C4.57142904 3.85093127 -1.19909881 6.771355 -7.0625 7.25 C-7.701875 7.1675 -8.34125 7.085 -9 7 C-9 7.66 -9 8.32 -9 9 C-9.99 9 -10.98 9 -12 9 C-10.53244059 6.06488119 -8.30733209 5.39238248 -5.4375 3.875 C-4.42558594 3.33617187 -3.41367188 2.79734375 -2.37109375 2.2421875 C-1.58863281 1.83226562 -0.80617188 1.42234375 0 1 C0 0.67 0 0.34 0 0 Z " fill="#666666" transform="translate(73,8)"/>
<path d="M0 0 C0.33 0 0.66 0 1 0 C1.33808686 2.06172613 1.67027361 4.1244203 2 6.1875 C2.185625 7.33605469 2.37125 8.48460938 2.5625 9.66796875 C2.93489477 12.50415393 3.08596021 15.14719564 3 18 C2.34 18.33 1.68 18.66 1 19 C-0.81304156 15.12310085 -1.24579233 12.07843864 -1.1875 7.8125 C-1.18105469 6.76707031 -1.17460937 5.72164063 -1.16796875 4.64453125 C-1 2 -1 2 0 0 Z " fill="#C0C0C0" transform="translate(289,98)"/>
<path d="M0 0 C0.66 0.66 1.32 1.32 2 2 C1.34 2 0.68 2 0 2 C-0.33 2.66 -0.66 3.32 -1 4 C-2.64646685 5.68662458 -4.31183067 7.35511706 -6 9 C-6 8.34 -6 7.68 -6 7 C-6.66 7 -7.32 7 -8 7 C-8.33 8.32 -8.66 9.64 -9 11 C-9.99 10.67 -10.98 10.34 -12 10 C-11.07347299 8.82460004 -10.13336613 7.65989423 -9.1875 6.5 C-8.40439453 5.52546875 -8.40439453 5.52546875 -7.60546875 4.53125 C-6 3 -6 3 -3 3 C-3 2.34 -3 1.68 -3 1 C-2.01 0.67 -1.02 0.34 0 0 Z " fill="#5F5F5F" transform="translate(415,477)"/>
<path d="M0 0 C0.55429687 0.28875 1.10859375 0.5775 1.6796875 0.875 C4.95818327 2.4645737 8.35357774 3.70699689 11.7578125 5 C14 6 14 6 16 8 C13.03 8 10.06 8 7 8 C6.67 7.01 6.34 6.02 6 5 C4.68 5 3.36 5 2 5 C1.34 3.35 0.68 1.7 0 0 Z " fill="#575757" transform="translate(61,480)"/>
<path d="M0 0 C0.99 0 1.98 0 3 0 C3 0.66 3 1.32 3 2 C3.66 2 4.32 2 5 2 C5.33 3.98 5.66 5.96 6 8 C5.01 8 4.02 8 3 8 C2.67 7.34 2.34 6.68 2 6 C1.01 5.67 0.02 5.34 -1 5 C-0.67 3.35 -0.34 1.7 0 0 Z " fill="#828282" transform="translate(55,472)"/>
<path d="M0 0 C6.15234375 -0.09765625 6.15234375 -0.09765625 8 0 C8.33 0.33 8.66 0.66 9 1 C11.68862664 1.39993686 14.36352217 1.75134543 17.0625 2.0625 C17.82111328 2.15337891 18.57972656 2.24425781 19.36132812 2.33789062 C21.2404301 2.5624374 23.12016095 2.78170978 25 3 C25 3.33 25 3.66 25 4 C18.03058433 4.26691379 11.7832499 3.56185754 5 2 C3.33423541 1.6621876 1.66779232 1.32765478 0 1 C0 0.67 0 0.34 0 0 Z " fill="#D8D8D8" transform="translate(316,145)"/>
<path d="M0 0 C2 2 2 2 2.25 4.5625 C1.93919743 8.8360353 1.0329294 12.84983724 0 17 C-0.66 16.67 -1.32 16.34 -2 16 C-2 13.03 -2 10.06 -2 7 C-1.34 6.67 -0.68 6.34 0 6 C0 4.02 0 2.04 0 0 Z " fill="#363636" transform="translate(48,32)"/>
<path d="M0 0 C0.43570312 0.37511719 0.87140625 0.75023437 1.3203125 1.13671875 C1.91585938 1.64847656 2.51140625 2.16023438 3.125 2.6875 C4.07439453 3.50541016 4.07439453 3.50541016 5.04296875 4.33984375 C6.81640213 5.8442533 8.62132079 7.29792354 10.4375 8.75 C11.283125 9.4925 12.12875 10.235 13 11 C13 11.66 13 12.32 13 13 C9.56247993 11.4722133 6.81046312 9.49818944 4 7 C4 6.34 4 5.68 4 5 C2.68 4.67 1.36 4.34 0 4 C0 2.68 0 1.36 0 0 Z " fill="#BAB9B7" transform="translate(341,58)"/>
<path d="M0 0 C2.49361571 1.20381448 4.68143083 2.45428722 7 4 C7 4.66 7 5.32 7 6 C7.99 6 8.98 6 10 6 C10 6.66 10 7.32 10 8 C11.65 8 13.3 8 15 8 C15.33 8.66 15.66 9.32 16 10 C10.09819413 9.63866495 6.35888383 8.05258389 2 4 C0.5625 1.6875 0.5625 1.6875 0 0 Z " fill="#DEDCDB" transform="translate(302,130)"/>
<path d="M0 0 C1.32 0.33 2.64 0.66 4 1 C0.25 4 0.25 4 -2 4 C-2 4.66 -2 5.32 -2 6 C-3.32 6.33 -4.64 6.66 -6 7 C-4.6875 4.5 -4.6875 4.5 -3 2 C-2.01 2 -1.02 2 0 2 C0 1.34 0 0.68 0 0 Z " fill="#C0C0C0" transform="translate(64,15)"/>
<path d="M0 0 C5.21979128 -0.1799928 9.07262981 0.02905192 14 2 C14 2.33 14 2.66 14 3 C11.36 3 8.72 3 6 3 C6 2.34 6 1.68 6 1 C4.02 1 2.04 1 0 1 C0 0.67 0 0.34 0 0 Z " fill="#E4E2E1" transform="translate(318,140)"/>
<path d="M0 0 C1.32 0 2.64 0 4 0 C4.33 0.66 4.66 1.32 5 2 C7.52733235 2.65555119 7.52733235 2.65555119 10 3 C10 3.99 10 4.98 10 6 C5.56909529 4.79157144 3.01887244 3.48331435 0 0 Z " fill="#C6C6C6" transform="translate(61,479)"/>
<path d="M0 0 C2 2 2 2 2.125 5.125 C2.08375 6.07375 2.0425 7.0225 2 8 C1.34 8 0.68 8 0 8 C-0.33 8.66 -0.66 9.32 -1 10 C-0.67 6.7 -0.34 3.4 0 0 Z " fill="#6B6B6B" transform="translate(49,455)"/>
<path d="M0 0 C0 3.86695678 -1.41909971 6.5088452 -3 10 C-3.33 10 -3.66 10 -4 10 C-4.25 7.25 -4.25 7.25 -4 4 C-2 1.625 -2 1.625 0 0 Z " fill="#8C8C8C" transform="translate(54,27)"/>
<path d="M0 0 C3.3 0.99 6.6 1.98 10 3 C10 3.33 10 3.66 10 4 C6.37 3.67 2.74 3.34 -1 3 C-0.67 2.01 -0.34 1.02 0 0 Z " fill="#C62626" transform="translate(237,284)"/>
<path d="M0 0 C0 0.66 0 1.32 0 2 C-2.8125 2.625 -2.8125 2.625 -6 3 C-6.99 2.34 -7.98 1.68 -9 1 C-5.92677456 0.08941469 -3.19902639 -0.08886184 0 0 Z " fill="#BA2A2A" transform="translate(231,197)"/>
<path d="" fill="#141414" transform="translate(0,0)"/>
<path d="" fill="#131313" transform="translate(0,0)"/>
<path d="" fill="#0D0D0D" transform="translate(0,0)"/>
<path d="M0 0 C2 1 2 1 2 1 Z " fill="#121212" transform="translate(68,10)"/>
<path d="" fill="#030303" transform="translate(0,0)"/>
<path d="" fill="#101010" transform="translate(0,0)"/>
<path d="" fill="#101010" transform="translate(0,0)"/>
<path d="" fill="#0F0F10" transform="translate(0,0)"/>
<path d="" fill="#101010" transform="translate(0,0)"/>
<path d="" fill="#101010" transform="translate(0,0)"/>
<path d="" fill="#141414" transform="translate(0,0)"/>
<path d="" fill="#101111" transform="translate(0,0)"/>
<path d="" fill="#111111" transform="translate(0,0)"/>
</svg>
