<?xml version="1.0" encoding="UTF-8"?>
<svg height="128px" viewBox="0 0 128 128" width="128px" xmlns="http://www.w3.org/2000/svg" xmlns:xlink="http://www.w3.org/1999/xlink">
    <filter id="a" height="100%" width="100%" x="0%" y="0%">
        <feColorMatrix color-interpolation-filters="sRGB" values="0 0 0 0 1 0 0 0 0 1 0 0 0 0 1 0 0 0 1 0"/>
    </filter>
    <linearGradient id="b" gradientTransform="matrix(0.106838 0 0 0.105997 66.892988 12.129116)" gradientUnits="userSpaceOnUse" x1="369.164856" x2="267.569244" y1="297.688202" y2="153.438431">
        <stop offset="0" stop-color="#fc6801"/>
        <stop offset="1" stop-color="#f44125"/>
    </linearGradient>
    <linearGradient id="c" gradientTransform="matrix(0.106838 0 0 0.105997 110.566978 40.043997)" gradientUnits="userSpaceOnUse" x1="-388.828003" x2="33.749901" y1="653.702087" y2="97.907349">
        <stop offset="0" stop-color="#fcb801"/>
        <stop offset="1" stop-color="#fc6801"/>
    </linearGradient>
    <linearGradient id="d" gradientTransform="matrix(0.106838 0 0 0.105997 110.780654 41.421955)" gradientUnits="userSpaceOnUse" x1="-375.724731" x2="-18.996889" y1="538.284607" y2="163.242615">
        <stop offset="0" stop-color="#fcb801"/>
        <stop offset="1" stop-color="#fcb801" stop-opacity="0"/>
    </linearGradient>
    <linearGradient id="e" gradientTransform="matrix(-0.106821 -0.00186856 0.00188338 -0.10598 16.521012 88.591096)" gradientUnits="userSpaceOnUse" x1="-434.926605" x2="63.296841" y1="648.513916" y2="185.400085">
        <stop offset="0.429285" stop-color="#9d3774"/>
        <stop offset="1" stop-color="#0ba5ec"/>
    </linearGradient>
    <linearGradient id="f" gradientTransform="matrix(-0.106821 -0.00186856 0.00188338 -0.10598 16.331854 87.209615)" gradientUnits="userSpaceOnUse" x1="15.977968" x2="-360.490814" y1="234.332321" y2="535.320435">
        <stop offset="0" stop-color="#0ba5ec"/>
        <stop offset="0.734678" stop-color="#9d3774"/>
    </linearGradient>
    <linearGradient id="g" gradientTransform="matrix(0.106838 -0 0 0.105997 8.53361 9.874239)" gradientUnits="userSpaceOnUse" x1="449.71991" x2="144.249786" y1="964.493652" y2="589.727051">
        <stop offset="0.428385" stop-color="#61b933"/>
        <stop offset="1" stop-color="#298ed3"/>
    </linearGradient>
    <clipPath id="h">
        <rect height="128" width="128"/>
    </clipPath>
    <clipPath id="i">
        <rect height="128" width="128"/>
    </clipPath>
    <mask id="j">
        <g filter="url(#a)">
            <g clip-path="url(#i)" filter="url(#a)">
                <g clip-path="url(#h)">
                    <path d="m 107.707031 37.542969 c 2.445313 14.230469 -12.464843 30.441406 -14.863281 30.640625 c -0.195312 -0.089844 -0.195312 -0.089844 -0.40625 -0.410156 c 1.664062 -14.914063 -12.203125 -30.476563 -25.347656 -32.054688 c -0.316406 -0.050781 -0.316406 -0.050781 -0.660156 -0.027344 c -0.292969 -0.011718 -0.292969 -0.011718 -0.5 -0.140625 c -0.113282 -0.191406 -0.113282 -0.191406 -0.101563 -0.441406 c 7.179687 -6.753906 7.898437 -7.414063 9.878906 -9.792969 c 1.140625 -1.367187 0.0625 -3.066406 -0.601562 -3.367187 c -8.238281 -3.71875 -10.746094 -4.726563 -17.890625 -7.472657 c -0.980469 -0.375 -0.160156 -1.003906 -0.160156 -1.003906 c 23 0.585938 40.339843 4.363282 49.804687 20.117188 c 0.726563 1.355468 0.628906 2.667968 0.847656 3.953125 z m 0 0" fill="url(#b)"/>
                    <path d="m 92.859375 67.804688 c -2.039063 -23.171876 -15.757813 -29.484376 -26.757813 -32.210938 c -0.046874 -0.460938 4.367188 -4.449219 4.367188 -4.449219 c 0.34375 1.457031 21.453125 0.691407 23.859375 28.152344 l -0.207031 0.058594 l 0.246094 0.8125 c 4.855468 -2.628907 9.382812 -15.140625 5.726562 -26.535157 c -1.816406 -5.664062 -12.5 -15.152343 -14.46875 -16.695312 c 0.796875 -0.859375 1.691406 -0.105469 5.113281 1.941406 c 4.574219 2.304688 8.070313 4.234375 12.203125 9.554688 c 6.085938 5.660156 9.980469 20.714844 -9.539062 39.519531 z m 0 0" fill-opacity="0.066667"/>
                    <path d="m 110.460938 40.066406 c 0.242187 0.023438 0.394531 0.320313 0.507812 0.503906 c 13.941406 22.4375 3.09375 63.324219 -22.585938 71.234376 c -0.058593 1.769531 0.617188 5.945312 0.628907 6.214843 l -0.027344 0.25 c -0.507813 0.335938 -1.054687 0.25 -1.652344 0.25 c -0.21875 0 -0.4375 0.003907 -0.65625 0.007813 c -0.675781 0.003906 -19.914062 -6.617188 -31.023437 -10.75 c -1.890625 -0.703125 -2.578125 -2.59375 -0.695313 -4.507813 c 5.257813 -5.34375 13.765625 -13.0625 20.828125 -20.679687 c 0.898438 -0.964844 2.273438 0.199218 2.378906 0.265625 c 0.386719 0.355469 0.46875 0.777343 0.511719 1.28125 c 0.265625 1.984375 0.332031 2.703125 0.652344 4.707031 c 11.976563 -9 9.851563 -12.511719 12.441406 -15.382812 c 11.925781 -9.03125 19.125 -19.835938 18.425781 -32.03125 c -0.046874 -0.582032 -0.191406 -1.125 0.265626 -1.363282 z m 0 0" fill="url(#c)"/>
                    <path d="m 110.78125 41.421875 c 2.566406 23.925781 0.761719 56.71875 -27.878906 60.445313 c 3.089844 9.503906 2.074218 6.679687 4.160156 13.753906 c 0.066406 0.761718 0.011719 1.621094 -0.464844 1.367187 c -1.15625 -0.585937 -28.007812 -12.019531 -28.46875 -11.816406 c -0.738281 0.324219 -1.34375 0.441406 -2.144531 0.3125 c -0.390625 -0.171875 -0.546875 -0.308594 -0.757813 -0.675781 c -0.074218 -0.3125 -0.074218 -0.3125 0 -0.636719 c 0.21875 -0.25 0.460938 -0.457031 0.746094 -0.636719 c 6.898438 -7.835937 12.863282 -13.980468 19.171875 -20.304687 c 0.707031 -0.519531 0.425781 -0.371094 1.128907 -0.894531 c 0.792968 -0.089844 1.21875 0.097656 1.890624 0.519531 c 0.953126 1.304687 0.992188 4.753906 0.960938 6.167969 c 6.527344 -3.496094 11.714844 -11.019532 11.863281 -14.9375 c 7.296875 -6.027344 18.605469 -11.285157 19.792969 -32.664063 z m 0 0" fill="url(#d)"/>
                    <path d="m 13.210938 84.4375 c -0.246094 -0.027344 -0.402344 -0.320312 -0.5 -0.511719 c -11.617188 -22.890625 1.449218 -59.234375 27.265624 -66.695312 c 0.089844 -1.769531 -0.25 -3.476563 -0.519531 -6.226563 c -0.011719 -1.363281 0.648438 -1.347656 2.53125 -0.691406 c 3.417969 1.039062 20.273438 6.925781 30.640625 11.519531 c 2.367188 1.046875 2.417969 2.816407 0.617188 4.515625 c -5.460938 5.140625 -13.996094 12.820313 -21.195313 20.3125 c -0.910156 0.949219 -2.269531 -0.238281 -2.371093 -0.304687 c -0.378907 -0.363281 -0.457032 -0.789063 -0.488282 -1.292969 c -0.230468 -1.988281 -0.261718 -3.453125 -0.546875 -5.460938 c -7.757812 4.484376 -12.582031 10.160157 -15.105469 18.101563 c -11.785156 4.152344 -17.746093 7.507813 -20.039062 25.375 c 0.035156 0.582031 0.171875 1.128906 -0.289062 1.359375 z m 0 0" fill="url(#e)"/>
                    <path d="m 12.914062 84.136719 c -2.140624 -23.96875 3.664063 -53.652344 32.367188 -56.875 c -2.921875 -9.558594 -1.957031 -6.714844 -3.917969 -13.824219 c -0.050781 -0.765625 0.019531 -1.621094 0.492188 -1.359375 c 1.144531 0.609375 27.785156 12.507813 28.25 12.3125 c 0.746093 -0.308594 1.355469 -0.417969 2.152343 -0.273437 c 0.386719 0.175781 0.542969 0.316406 0.746094 0.6875 c 0.070313 0.3125 0.070313 0.3125 -0.011718 0.636718 c -0.226563 0.246094 -0.46875 0.449219 -0.757813 0.621094 c -7.035156 7.71875 -13.109375 13.753906 -19.527344 19.96875 c -0.714843 0.503906 -0.433593 0.363281 -1.144531 0.875 c -0.796875 0.074219 -1.21875 -0.117188 -1.882812 -0.550781 c -0.929688 -1.324219 -1.023438 -5.542969 -0.96875 -6.957031 c -10.589844 6.519531 -12.054688 10.890624 -15.265626 18.175781 c -11.171874 4.28125 -16.828124 3.5625 -20.53125 26.5625 z m 0 0" fill="url(#f)"/>
                    <path d="m 33.570312 59.53125 c -2.445312 17.636719 7.003907 32.949219 27.746094 34.253906 c 1.175782 1.746094 -2.902344 3.761719 -8.066406 9.253906 c -2.421875 2.578126 -0.585938 5.015626 0.96875 5.632813 c 10.804688 4.289063 17.726562 6.996094 17.269531 7.675781 c -38.382812 0.492188 -51.144531 -12.921875 -57.039062 -28 c 1.105469 -17.65625 9.925781 -25.671875 19.121093 -28.816406 z m 0 0" fill="url(#g)"/>
                    <path d="m 33.144531 60.425781 c -0.898437 22.496094 10.289063 31 27.957031 33.570313 c -0.191406 0.964844 -1.789062 1.101562 -4.085937 3.824218 c -20.148437 -2.449218 -31.738281 -0.597656 -26.0625 -27.582031 h 0.214844 v -0.847656 c -1.707031 0.6875 -9.640625 5.570313 -9.453125 17.527344 c 0.097656 5.945312 5.601562 17.511719 7.039062 19.554687 c -1.542968 -0.722656 -3.492187 -2.058594 -5.675781 -4.246094 c -2.988281 -3.605468 -6.011719 -7.367187 -8.425781 -13.640624 c -0.992188 -11.355469 8.292968 -26.949219 18.492187 -28.160157 z m 0 0" fill-opacity="0.066667"/>
                </g>
            </g>
        </g>
    </mask>
    <mask id="k">
        <g filter="url(#a)">
            <rect fill-opacity="0.8" height="184.32" width="184.32" x="-28.16" y="-28.16"/>
        </g>
    </mask>
    <linearGradient id="l" gradientTransform="matrix(0 0.37 -0.98462 0 295.38501 -30.360001)" gradientUnits="userSpaceOnUse" x1="300" x2="428" y1="235" y2="235">
        <stop offset="0" stop-color="#f9f06b"/>
        <stop offset="1" stop-color="#f5c211"/>
    </linearGradient>
    <clipPath id="m">
        <rect height="128" width="128"/>
    </clipPath>
    <clipPath id="n">
        <rect height="128" width="128"/>
    </clipPath>
    <path d="m 107.707031 37.542969 c 2.445313 14.230469 -12.464843 30.441406 -14.863281 30.640625 c -0.195312 -0.089844 -0.195312 -0.089844 -0.40625 -0.410156 c 1.664062 -14.914063 -12.203125 -30.476563 -25.347656 -32.054688 c -0.316406 -0.050781 -0.316406 -0.050781 -0.660156 -0.027344 c -0.292969 -0.011718 -0.292969 -0.011718 -0.5 -0.140625 c -0.113282 -0.191406 -0.113282 -0.191406 -0.101563 -0.441406 c 7.179687 -6.753906 7.898437 -7.414063 9.878906 -9.792969 c 1.140625 -1.367187 0.0625 -3.066406 -0.601562 -3.367187 c -8.238281 -3.71875 -10.746094 -4.726563 -17.890625 -7.472657 c -0.980469 -0.375 -0.160156 -1.003906 -0.160156 -1.003906 c 23 0.585938 40.339843 4.363282 49.804687 20.117188 c 0.726563 1.355468 0.628906 2.667968 0.847656 3.953125 z m 0 0" fill="url(#b)"/>
    <path d="m 92.859375 67.804688 c -2.039063 -23.171876 -15.757813 -29.484376 -26.757813 -32.210938 c -0.046874 -0.460938 4.367188 -4.449219 4.367188 -4.449219 c 0.34375 1.457031 21.453125 0.691407 23.859375 28.152344 l -0.207031 0.058594 l 0.246094 0.8125 c 4.855468 -2.628907 9.382812 -15.140625 5.726562 -26.535157 c -1.816406 -5.664062 -12.5 -15.152343 -14.46875 -16.695312 c 0.796875 -0.859375 1.691406 -0.105469 5.113281 1.941406 c 4.574219 2.304688 8.070313 4.234375 12.203125 9.554688 c 6.085938 5.660156 9.980469 20.714844 -9.539062 39.519531 z m 0 0" fill-opacity="0.066667"/>
    <path d="m 110.460938 40.066406 c 0.242187 0.023438 0.394531 0.320313 0.507812 0.503906 c 13.941406 22.4375 3.09375 63.324219 -22.585938 71.234376 c -0.058593 1.769531 0.617188 5.945312 0.628907 6.214843 l -0.027344 0.25 c -0.507813 0.335938 -1.054687 0.25 -1.652344 0.25 c -0.21875 0 -0.4375 0.003907 -0.65625 0.007813 c -0.675781 0.003906 -19.914062 -6.617188 -31.023437 -10.75 c -1.890625 -0.703125 -2.578125 -2.59375 -0.695313 -4.507813 c 5.257813 -5.34375 13.765625 -13.0625 20.828125 -20.679687 c 0.898438 -0.964844 2.273438 0.199218 2.378906 0.265625 c 0.386719 0.355469 0.46875 0.777343 0.511719 1.28125 c 0.265625 1.984375 0.332031 2.703125 0.652344 4.707031 c 11.976563 -9 9.851563 -12.511719 12.441406 -15.382812 c 11.925781 -9.03125 19.125 -19.835938 18.425781 -32.03125 c -0.046874 -0.582032 -0.191406 -1.125 0.265626 -1.363282 z m 0 0" fill="url(#c)"/>
    <path d="m 110.78125 41.421875 c 2.566406 23.925781 0.761719 56.71875 -27.878906 60.445313 c 3.089844 9.503906 2.074218 6.679687 4.160156 13.753906 c 0.066406 0.761718 0.011719 1.621094 -0.464844 1.367187 c -1.15625 -0.585937 -28.007812 -12.019531 -28.46875 -11.816406 c -0.738281 0.324219 -1.34375 0.441406 -2.144531 0.3125 c -0.390625 -0.171875 -0.546875 -0.308594 -0.757813 -0.675781 c -0.074218 -0.3125 -0.074218 -0.3125 0 -0.636719 c 0.21875 -0.25 0.460938 -0.457031 0.746094 -0.636719 c 6.898438 -7.835937 12.863282 -13.980468 19.171875 -20.304687 c 0.707031 -0.519531 0.425781 -0.371094 1.128907 -0.894531 c 0.792968 -0.089844 1.21875 0.097656 1.890624 0.519531 c 0.953126 1.304687 0.992188 4.753906 0.960938 6.167969 c 6.527344 -3.496094 11.714844 -11.019532 11.863281 -14.9375 c 7.296875 -6.027344 18.605469 -11.285157 19.792969 -32.664063 z m 0 0" fill="url(#d)"/>
    <path d="m 13.210938 84.4375 c -0.246094 -0.027344 -0.402344 -0.320312 -0.5 -0.511719 c -11.617188 -22.890625 1.449218 -59.234375 27.265624 -66.695312 c 0.089844 -1.769531 -0.25 -3.476563 -0.519531 -6.226563 c -0.011719 -1.363281 0.648438 -1.347656 2.53125 -0.691406 c 3.417969 1.039062 20.273438 6.925781 30.640625 11.519531 c 2.367188 1.046875 2.417969 2.816407 0.617188 4.515625 c -5.460938 5.140625 -13.996094 12.820313 -21.195313 20.3125 c -0.910156 0.949219 -2.269531 -0.238281 -2.371093 -0.304687 c -0.378907 -0.363281 -0.457032 -0.789063 -0.488282 -1.292969 c -0.230468 -1.988281 -0.261718 -3.453125 -0.546875 -5.460938 c -7.757812 4.484376 -12.582031 10.160157 -15.105469 18.101563 c -11.785156 4.152344 -17.746093 7.507813 -20.039062 25.375 c 0.035156 0.582031 0.171875 1.128906 -0.289062 1.359375 z m 0 0" fill="url(#e)"/>
    <path d="m 12.914062 84.136719 c -2.140624 -23.96875 3.664063 -53.652344 32.367188 -56.875 c -2.921875 -9.558594 -1.957031 -6.714844 -3.917969 -13.824219 c -0.050781 -0.765625 0.019531 -1.621094 0.492188 -1.359375 c 1.144531 0.609375 27.785156 12.507813 28.25 12.3125 c 0.746093 -0.308594 1.355469 -0.417969 2.152343 -0.273437 c 0.386719 0.175781 0.542969 0.316406 0.746094 0.6875 c 0.070313 0.3125 0.070313 0.3125 -0.011718 0.636718 c -0.226563 0.246094 -0.46875 0.449219 -0.757813 0.621094 c -7.035156 7.71875 -13.109375 13.753906 -19.527344 19.96875 c -0.714843 0.503906 -0.433593 0.363281 -1.144531 0.875 c -0.796875 0.074219 -1.21875 -0.117188 -1.882812 -0.550781 c -0.929688 -1.324219 -1.023438 -5.542969 -0.96875 -6.957031 c -10.589844 6.519531 -12.054688 10.890624 -15.265626 18.175781 c -11.171874 4.28125 -16.828124 3.5625 -20.53125 26.5625 z m 0 0" fill="url(#f)"/>
    <path d="m 33.570312 59.53125 c -2.445312 17.636719 7.003907 32.949219 27.746094 34.253906 c 1.175782 1.746094 -2.902344 3.761719 -8.066406 9.253906 c -2.421875 2.578126 -0.585938 5.015626 0.96875 5.632813 c 10.804688 4.289063 17.726562 6.996094 17.269531 7.675781 c -38.382812 0.492188 -51.144531 -12.921875 -57.039062 -28 c 1.105469 -17.65625 9.925781 -25.671875 19.121093 -28.816406 z m 0 0" fill="url(#g)"/>
    <path d="m 33.144531 60.425781 c -0.898437 22.496094 10.289063 31 27.957031 33.570313 c -0.191406 0.964844 -1.789062 1.101562 -4.085937 3.824218 c -20.148437 -2.449218 -31.738281 -0.597656 -26.0625 -27.582031 h 0.214844 v -0.847656 c -1.707031 0.6875 -9.640625 5.570313 -9.453125 17.527344 c 0.097656 5.945312 5.601562 17.511719 7.039062 19.554687 c -1.542968 -0.722656 -3.492187 -2.058594 -5.675781 -4.246094 c -2.988281 -3.605468 -6.011719 -7.367187 -8.425781 -13.640624 c -0.992188 -11.355469 8.292968 -26.949219 18.492187 -28.160157 z m 0 0" fill-opacity="0.066667"/>
    <g mask="url(#j)">
        <g clip-path="url(#n)">
            <g mask="url(#k)">
                <g clip-path="url(#m)">
                    <path d="m 128 80.640625 v 47.359375 h -128 v -47.359375 z m 0 0" fill="url(#l)"/>
                    <path d="m 13.308594 80.640625 l 47.355468 47.359375 h 21.214844 l -47.359375 -47.359375 z m 42.421875 0 l 47.363281 47.359375 h 21.214844 l -47.363282 -47.359375 z m 42.429687 0 l 29.839844 29.839844 v -21.210938 l -8.628906 -8.628906 z m -98.160156 7.90625 v 21.214844 l 18.238281 18.238281 h 21.214844 z m 0 0"/>
                </g>
            </g>
        </g>
    </g>
</svg>
